<svg xmlns="http://www.w3.org/2000/svg" width="18" height="12" fill="none" viewBox="0 0 18 12"><path fill="#fff" fill-rule="evenodd" d="M11.502 1.877h4.767V.512h-4.767v1.365zm1.13 2.98c-.305.31-.496.728-.575 1.256h3.708c-.04-.564-.232-.99-.573-1.283-.345-.291-.77-.436-1.277-.436-.55 0-.98.154-1.284.463zm3.216-1.833a3.31 3.31 0 0 1 1.42 1.2 3.92 3.92 0 0 1 .658 1.678c.058.372.082.91.072 1.611h-5.993c.036.814.32 1.385.861 1.711.328.204.723.306 1.187.306.487 0 .886-.124 1.192-.371.169-.135.317-.32.444-.559h2.196c-.059.48-.325.97-.797 1.467-.737.788-1.769 1.183-3.095 1.183-1.095 0-2.061-.332-2.896-.998-.84-.665-1.257-1.749-1.257-3.248 0-1.407.378-2.485 1.133-3.236.756-.749 1.735-1.125 2.94-1.125.717 0 1.362.127 1.935.38zM2.218 6.142V9.07h2.7c.483 0 .86-.065 1.127-.193.488-.24.731-.696.731-1.37 0-.572-.234-.964-.708-1.178-.264-.119-.636-.181-1.112-.186H2.217zm0-4.237v2.422h2.704c.482 0 .874-.091 1.177-.273.3-.181.452-.503.452-.962 0-.513-.199-.85-.597-1.015-.345-.114-.783-.172-1.315-.172H2.217zm6.04-.736c.34.467.51 1.025.51 1.675 0 .67-.17 1.21-.514 1.616-.193.228-.475.437-.849.625.567.204.995.527 1.286.969.288.44.433.977.433 1.607 0 .65-.165 1.235-.497 1.75-.21.342-.472.63-.787.864a3.083 3.083 0 0 1-1.256.551 7.82 7.82 0 0 1-1.572.147H0V0h5.375c1.357.02 2.317.41 2.883 1.17z" clip-rule="evenodd"/></svg>