<svg width="140" height="38" viewBox="0 0 140 38" fill="none" xmlns="http://www.w3.org/2000/svg">
<path d="M32.24 1.58L32.4 1.6L32.8 1.68H32.78L32.86 1.72L32.9 1.7L33 1.72H33.1L33.16 1.74L33.3 1.76L33.34 1.78L33.36 1.76L33.6 1.82L34.2 1.94L34.3 1.98L34.44 2C34.48 2.02 34.5 2.02 34.54 2.02L34.9 2.14L35.36 2.3L35.54 2.4L35.7 2.5L35.92 2.52L36.14 2.58L36.74 2.82L36.8 2.86L37.06 2.96L37.08 2.94H37.1L37.12 2.98H37.2L37.28 3.06H37.44V3.04C37.5 3.02 37.52 2.96 37.46 2.92V2.88L37.4 2.86H37.32L36.7 2.64L36.62 2.6H36.6L36.46 2.5L36.32 2.48L36.22 2.42L36.08 2.38C35.88 2.32 35.7 2.24 35.52 2.16L35.5 2.14L35.08 1.98L35.04 2C35.02 1.98 34.98 1.96 34.94 1.96V1.94L34.66 1.84L34.3 1.72L33.88 1.6L33.78 1.54L33.76 1.56L33.18 1.42L33.16 1.4L32.4 1.26H32.32L31.92 1.18H31.78L31.56 1.14H31.48L31.3 1.1L31.14 1.14L30.48 1.06L30.22 0.96L30.18 0.92L30.14 0.900001L30 0.94L29.4 0.92L29.22 0.900001L29.08 0.88L28.98 0.900001H28.86L28.72 0.92L28.7 0.900001H28.6L28.54 0.92H28.46L28.44 0.900001L28.36 0.88L28.3 0.860001H27.9L27.8 0.819999L27.64 0.860001L27.46 0.819999L27.42 0.860001H27.28L27.14 0.88L26.14 0.860001H25.62L25.48 0.88L25.24 0.860001L25.14 0.88H25.1L25.08 0.92H24.94C24.68 0.92 24.4 0.88 24.14 0.900001L24.18 0.88V0.84H24.1L24.02 0.88L24.04 0.900001C23.9 0.92 23.74 0.92 23.6 0.92L23.58 0.900001H23.42L23.32 0.94L22.24 1.02L22.22 0.999999L22.1 1.02H21.98L21.9 1.06L21.34 1.1L21.26 1.06L21.2 0.999999L21.18 1.08L21.1 1.12C20.38 1.2 19.66 1.28 18.96 1.38L18.94 1.36L18.86 1.34L18.82 1.4C18.44 1.44 18.04 1.5 17.66 1.56H17.34L17.08 1.62H16.86L16.48 1.64L16.16 1.66L15.94 1.72L15.48 1.88L15 1.94L14.66 2.04L14.54 2.12L13.24 2.38V2.36L13.18 2.38H13.16C13.14 2.38 13.12 2.38 13.1 2.4H13.08L11.72 2.72H11.6L11 2.86L10.56 2.96L10.52 2.98L9.58 3.22L9.46 3.18L9.38 3.2L9.16 3.24L8.96 3.38V3.4L8.38 3.56L8.32 3.54L8.16 3.62H8.14L8.12 3.64L8 3.68L7.8 3.62L7.54 3.8L7.12 3.9L6.8 3.98L6.38 4.12H6.24L5.74 4.2L5.12 4.62L4.52 4.86L4.26 4.98L4.12 5.08L4.02 5.1L3.94 5.08L3.92 5.14L3.94 5.16L3.88 5.28L3.86 5.38C3.68 5.52 3.54 5.68 3.52 5.82C3.52 5.9 3.58 5.96 3.66 5.96C4.06 6 4.22 5.94 4.44 5.86H4.82L5.24 5.7L5.42 5.68L5.56 5.7H5.8L5.7 5.76L5.8 5.82L5.94 5.72L6.3 5.64H6.32V5.62L6.74 5.56C6.86 5.56 6.78 5.46 6.68 5.44L6.64 5.38L6.22 5.4L6.6 5.28L6.5 5.24L6.38 5.22L6.34 5.18L6.36 5.14L6.32 5.1L6.28 5.14L6.1 4.96L6.18 4.86L6.24 4.92L6.32 4.84L6.24 4.8L6.32 4.72L6.48 4.62L6.62 4.54L7.08 4.38L7.46 4.3V4.34L7.5 4.44L7.6 4.54L7.84 4.56L8.08 4.48L8.16 4.44L8.3 4.28L8.42 4.1L8.44 4.12L8.46 4.1L8.44 4.08L8.46 4.06L8.54 4.04L8.62 4L9.64 3.78L10.02 3.62L10.4 3.54L11.76 3.14L13.12 2.82L13.28 2.74C13.44 2.72 13.62 2.66 13.8 2.64L14.22 2.62L14.28 2.6L14.56 2.54L14.68 2.48L16.3 2.18H16.38L16.64 2.16H16.8L16.98 2.12L17.26 2.02L17.36 2L18.66 1.8H18.86L19.16 1.74L19.34 1.72C19.9 1.64 20.46 1.56 21.04 1.5H21.24L21.5 1.46L21.56 1.44L22.6 1.34L22.64 1.4L22.86 1.46L23.08 1.44L23.16 1.42L23.32 1.32L23.36 1.3C23.52 1.3 23.68 1.28 23.84 1.28H23.86L23.94 1.32L24.14 1.26L24.68 1.22L24.78 1.24L24.9 1.22C25 1.22 25.12 1.2 25.24 1.2L25.46 1.22L25.72 1.2L25.94 1.22L26.02 1.2L26.16 1.18L26.36 1.24L26.44 1.26L27.36 1.18C27.66 1.18 27.98 1.2 28.28 1.2L28.38 1.24L28.54 1.22L29.54 1.18L30.06 1.2L30.26 1.22L30.38 1.2L30.66 1.24L30.8 1.3L31.18 1.44H31.24L31.4 1.48H31.52L32.24 1.58ZM17.9 19.4L17.48 19.46L16.86 19.52C16.42 19.54 15.98 19.58 15.56 19.62L14.72 19.68L14.56 19.62L14.32 19.6H13.94L13.7 19.68L13.64 19.76C13.5 19.76 13.36 19.78 13.24 19.8V19.7L13.16 19.68H13.06L12.9 19.74L12.8 19.7L12.76 19.76L12.7 19.74L12.38 19.78L12.34 19.8L12.28 19.82L11.54 19.92H11.46L11.18 19.94L11.08 19.92L10.84 19.9L10.76 19.92H10.54L10.32 19.94L10.12 20L10.06 19.96L9.9 19.94L9.76 20.04L9.66 19.96L9.52 20L9.4 19.92L8.76 20H8.66L8.54 19.98H8.12L8.06 20.06L7.82 20.02L7.64 20.1H7.36V20.04L7.3 19.92L7.08 19.84L6.86 19.86L6.76 19.88L6.6 19.96L6.46 20.08L6.44 20.06V20.08H6.42L6.4 20.1L6.32 20.12H6.2V20.14H6.02L5.88 20.18L5.2 20.22L4.96 20.28L4.58 20.3L4.44 20.34L3.86 20.32L3.78 20.3L3.76 20.32L3.72 20.28L3.44 20.18H3.38V20.16L3.3 20.18L2.98 20.14L2.68 20.28L2.58 20.44L2.5 20.46L2.4 20.38L2.14 20.4L1.68 20.7L1.08 20.76L0.92 20.88L0.86 20.86V20.9L0.66 21.06L0.62 21.18V21.28L0.78 21.38L0.8 21.46L0.94 21.64L1.32 21.76L1.7 21.66L1.84 21.64L1.86 21.62L2.02 21.58L2.4 21.52L2.74 21.34L3.24 21.24L4.16 21.18L4.88 21.06L5.08 21L5.78 20.94L5.94 20.88L6.14 20.94L6.46 20.82L7.16 20.76H7.32L7.44 20.82L7.46 20.72C7.56 20.72 7.68 20.7 7.8 20.7H7.94L8.1 20.66H8.26V20.7L8.32 20.64L9.5 20.52H9.76L9.96 20.5H10.04L10.26 20.48H10.4L10.8 20.42L10.88 20.44L11.3 20.36L13.88 20.12L13.9 20.16L14.12 20.1L14.24 20.14L14.58 20.1H14.82L15.44 20.04H15.54L16.96 19.86H17.44L17.8 19.82L17.94 19.8H18.02L18.54 19.72C19.42 19.66 20.3 19.56 21.18 19.44L21.24 19.46L21.28 19.44L21.7 19.38H21.88L22.04 19.32L22.08 19.34L22.22 19.28L22.76 19.16H22.98L23.06 19.1H23.16L23.2 19.06H23.32L23.42 19.04L23.44 19L23.58 18.98L23.74 18.94H23.82L24 18.9L24.2 18.8L24.84 18.62L24.98 18.66L25.04 18.6L25.06 18.56L25.04 18.46L24.96 18.44H24.9L24.82 18.48H24.7V18.52H24.62L24.38 18.56L24.32 18.6L23.68 18.74L23.44 18.8H23.22L23.04 18.84L22.86 18.92L22.46 19C22.42 19 22.38 19 22.36 19.02H22.24L22.08 19.06L21.32 19.16L21.28 19.14H21.18L21.04 19.2L20.92 19.16L20.88 19.22L20.84 19.2L20.48 19.24L20.4 19.26L20.24 19.28L19.12 19.38L18.96 19.36L18.78 19.4C18.6 19.4 18.4 19.42 18.22 19.44L17.9 19.4ZM18.74 8.28L18.84 8.14L18.86 8.04L18.96 7.92L19 7.8L19.06 7.78L19.14 7.68L19.16 7.58L19.24 7.54L19.28 7.46L19.34 7.42L19.6 7.04L19.64 6.96L19.7 6.92L19.88 6.68V6.62L19.98 6.48L20.04 6.34L20.68 5.44L20.74 5.34L21 4.96L21.08 4.8L21.24 4.58L21.28 4.5L21.54 4.14L21.58 4.12V4.1L21.6 4.02L21.64 3.98L21.74 3.9L21.76 3.86L21.74 3.94H21.8L21.86 3.86V3.76L21.78 3.78L21.88 3.66L21.96 3.5L22.06 3.36L22.14 3.3L22.24 3.14L22.34 2.78L22.48 2.52L22.5 2.4L22.54 2.34L22.56 2.28H22.58V2.24L22.54 2.26L22.56 2.16L22.5 2.1L22.4 2.06L22.44 1.92C22.44 1.84 22.4 1.78 22.32 1.78C22.12 1.6 21.86 1.72 21.7 1.92L21.6 2.16C21.28 2.36 21.14 2.74 21.14 3.1L20.98 3.32C21 3.44 20.94 3.54 20.92 3.66L20.78 3.9L20.62 4.14L20.36 4.56L19.96 5.14L19.86 5.34L19.74 5.32L19.56 5.46L19.46 5.66L19.44 5.74L19.42 5.94V6.12H19.4V6.14L19.42 6.16L19.38 6.24L18.92 6.9C18.78 7.2 18.56 7.44 18.42 7.72L18.28 7.96L18.04 8.28L18.06 8.34C17.86 8.64 17.64 8.96 17.38 9.22C17.32 9.4 17.24 9.58 17.14 9.76L16.64 10.46C16.5 10.56 16.42 10.8 16.32 10.86C16.32 10.9 16.3 10.94 16.28 10.96L16.24 11.02C16.18 11.1 16.1 11.16 16.12 11.26L15.82 11.66L15.74 11.74L15.7 11.76L15.64 11.84L15.58 11.98L15.12 12.6L15.04 12.66L14.92 12.82L14.76 13.06L14.64 13.22V13.24L14.58 13.32L14.4 13.46L14.24 13.68L14.18 13.82L14.16 13.86L13.9 14.2V14.22L12.86 15.54L12.7 15.68L12.62 15.84L11.82 16.9L11.8 16.92V16.94L11.58 17.18L11.56 17.22L11.54 17.24L11.5 17.22L11.46 17.34L11.34 17.44L11.28 17.52V17.62L11.36 17.66C11.36 17.66 11.38 17.68 11.4 17.68L11.5 17.7L11.58 17.66L11.62 17.5L12.22 16.76L12.36 16.64L12.5 16.46L12.52 16.36C12.62 16.24 12.74 16.12 12.84 15.98L12.9 15.92V15.9L13.14 15.6L13.2 15.56L13.56 15.12L13.62 15.04L13.72 14.94L13.94 14.66L13.98 14.6L14.08 14.44L14.14 14.34C14.14 14.34 14.16 14.32 14.16 14.3L14.24 14.28L14.3 14.2L14.4 14.04L14.88 13.4L14.94 13.36V13.32L14.98 13.26L15.12 13.22L15.16 13.16L15.14 13.06V13.04L15.28 12.98L15.34 12.84L15.38 12.78L15.42 12.68L15.68 12.34L15.88 12.16L15.96 12.04H15.94L15.98 12L16.02 11.94L16.18 11.8L16.22 11.74L16.3 11.58V11.5L16.74 10.92H16.88L16.94 10.88L16.98 10.7L17.46 9.98C17.6 9.84 17.76 9.68 17.8 9.48L18.02 9.16H18.04L18.16 9.12L18.2 8.96L18.6 8.42L18.74 8.28ZM3.96 5.64L3.98 5.66H3.96V5.64ZM12.3691 35.46L12.2891 35.54V36.02C12.2691 36.22 12.2691 36.42 12.3091 36.62C12.3291 36.7 12.3291 36.74 12.3291 36.76C12.4291 37.04 12.5691 37.26 12.7491 37.38L12.7891 37.46L13.3291 37.62L13.7091 37.52C14.1891 37.4 14.5491 37.08 14.9491 36.78C14.9691 36.78 14.9691 36.76 14.9891 36.76L15.2291 36.38L15.4091 36.12L15.5091 36.06C15.8091 35.56 16.2891 35.24 16.6491 34.78L16.8891 34.44L17.0091 34.28L17.3891 33.96C17.6891 33.54 18.1091 33.22 18.3891 32.82C18.7891 32.32 19.2691 31.86 19.5691 31.28L20.4891 30.12L20.5291 30.02C20.9691 29.48 21.4091 28.96 21.8291 28.42L23.1291 26.78L23.6091 26.14L24.6691 24.8L24.9291 24.4L24.9891 24.32L25.4491 23.72H25.4691L25.4891 23.66L26.3691 22.52L26.7891 21.94L26.9891 21.66C27.1291 21.46 27.2691 21.3 27.3891 21.1H27.4091L27.8491 20.52V20.46L27.9691 20.3L28.0091 20.28L28.2691 19.92V19.9L29.4091 18.3L29.6491 17.94H29.6691L29.7291 17.88L29.7891 17.76L29.8891 17.62L29.9491 17.58L30.0891 17.48L30.1491 17.46L30.1291 17.4L30.1891 17.16L30.2891 17.04L30.3091 17L30.4691 16.82L30.9091 16.58H30.9291L31.0891 16.52L31.2491 16.42L31.5091 16.28L31.6691 16.18C32.0091 16 32.2691 15.86 32.6691 15.68L33.0691 15.56L33.3291 15.42L33.7491 15.32L33.8691 15.22L34.3491 14.98L34.4891 14.94L34.9091 14.84L35.0891 14.8L35.2891 14.78L35.4491 14.68L36.1491 14.5L36.4091 14.48H36.4891L36.7491 14.42L36.8291 14.38L36.8491 14.4L36.9491 14.34H37.0691L37.1291 14.32L37.1891 14.26L37.1691 14.14L37.0891 14.08H37.0291L36.9491 14.14C36.9291 14.12 36.9091 14.1 36.8691 14.1L36.5491 14.2L36.2091 14.22L35.9891 14.28L35.8291 14.3L35.7291 14.36L35.5891 14.42L35.5291 14.44L35.5091 14.46C35.4691 14.46 35.4491 14.46 35.4291 14.48L35.4091 14.46L35.3491 14.5L35.1091 14.56V14.54L35.0691 14.56C35.0291 14.58 35.0091 14.58 34.9891 14.58H34.9491L34.4291 14.68L34.3891 14.74H34.2891L34.1691 14.82C33.9291 14.9 33.7091 14.98 33.4891 15.08L32.8891 15.34L32.4891 15.46L32.3491 15.5L32.1491 15.64L30.9491 16.2L30.9691 16.18L31.0691 16L31.1491 15.88L31.2491 15.58L31.4291 15.34L31.5091 15.1L31.5291 14.94L31.9491 14.06L32.2091 13.64L32.4091 13.24L32.5091 13.14L32.5891 13.02L32.7291 12.8L32.7691 12.52V12.38L32.7091 12.32L32.5891 12.28H32.4291L32.1491 12.32L31.6291 12.44L31.4891 12.52L31.5491 12.4L31.6291 12.2L31.6491 12.06L31.6891 12C31.7291 11.94 31.7291 11.38 31.6691 11.34C31.5891 11.28 31.5491 11.12 31.4691 11.06C31.3891 11 31.2291 10.98 31.1491 10.96C30.9691 10.92 30.4091 11.14 29.8291 11.42L29.4691 11.46L29.3491 11.52L29.2091 11.6L29.0691 11.74L28.9091 11.84L28.4491 12.12L28.3891 12.16L28.1691 12.3L28.0891 12.36L28.0291 12.38L27.5891 12.66L27.4891 12.76C27.2291 12.94 27.2091 12.96 26.9491 13.14H26.8891L26.8491 13.2L26.8091 13.22L26.7291 13.24H26.7091L26.5291 13.4L26.4291 13.48L26.2891 13.58H26.2291L26.1091 13.68L25.9091 13.94L25.7291 14.08L25.7091 14.12L25.5691 14.24L25.5491 14.26L25.3491 14.44L25.2691 14.48L25.2091 14.56L24.8091 14.94L24.6891 15.04L24.4491 15.36H24.4291C24.4091 15.42 24.3691 15.44 24.3291 15.48C24.3091 15.5 24.2891 15.52 24.2891 15.54L24.1891 15.68L24.1691 15.72L24.1091 15.78L24.0691 16.06L24.0291 16.16V16.28L24.1091 16.44L24.2091 16.56C24.2091 16.62 24.2491 16.64 24.3291 16.64C24.6291 16.66 25.0091 16.56 25.4291 16.4L25.5091 16.38L25.8691 16.32L26.0091 16.28H26.1691L26.2091 16.26L26.2491 16.14L26.3091 16.08L26.4291 16L26.5891 15.84L27.2291 15.46L27.2891 15.44L27.3091 15.42L27.4491 15.34L27.5691 15.3L27.6291 15.26L27.6691 15.22L28.2891 14.96L28.5291 14.76L28.9691 14.48L29.1091 14.42L29.2291 14.36L29.2891 14.34L29.9691 13.9H30.0291L30.0691 13.84L30.6491 13.46L30.7091 13.4L30.7891 13.42L30.9491 13.34L31.0091 13.28L31.0491 13.22L31.1491 13.16H31.1891L31.2291 13.12L31.3691 13.14L31.5891 13.04L31.6891 13.06H31.7491L31.7891 13.04L31.8091 13.06L31.8691 13.16V13.24L31.7291 13.7L31.5691 14.08H31.5491L31.3091 14.58L31.1491 14.88L31.1091 14.96L30.7491 15.62C30.6491 15.8 30.5891 15.94 30.5091 16.06L30.4891 16.08L30.0691 16.66L30.0491 16.68L29.8491 16.78L29.6091 16.86L29.4291 16.94L29.3091 17.02L29.1091 17.2L29.0291 17.24L28.8691 17.22L28.8091 17.26L28.7891 17.36L28.7091 17.42H28.6891L28.5491 17.56L27.3891 18.3L27.2091 18.36L27.1491 18.46C26.6691 18.78 26.1891 19.12 25.7091 19.46H25.6891L25.1691 19.76L24.9091 20.04L24.6891 20.18H24.5891L24.5491 20.22L24.5091 20.32L23.5491 21.02C23.4891 21.06 23.4291 21.1 23.3691 21.16L23.2091 21.22L23.1491 21.26L23.0491 21.38L23.0291 21.42C22.6291 21.74 22.1891 22.12 21.7291 22.52L21.6291 22.54H21.5691V22.62L21.5291 22.72L20.9891 23.22L20.6491 23.46L20.5091 23.62L20.3691 23.74L20.1091 23.96L19.9091 24.14L19.7891 24.26L19.6891 24.46L19.1691 25L18.9891 25.12H18.9691L18.7291 25.28L18.6691 25.46L18.4891 25.6C18.1491 26.02 17.8491 26.36 17.5891 26.64L17.4891 26.72L17.3891 26.84L17.2891 26.94L17.0891 27.08L16.8491 27.32L16.6891 27.6L16.4491 27.8L16.3291 28L16.3091 28.06C16.1891 28.2 16.1091 28.32 16.0291 28.44L15.2291 29.42L14.5691 30.4L14.2691 30.66L14.0891 30.88L14.0291 31.02L13.9891 31.14L13.8891 31.32L13.8091 31.46L13.7491 31.72L13.6691 31.82L13.6291 32.02C13.4091 32.44 13.2091 32.86 13.0291 33.28L12.9691 33.4L12.9491 33.52C12.9491 33.54 12.9291 33.56 12.9291 33.58L12.9091 33.6L12.6691 33.86L12.6091 34.02L12.5691 34.3V34.56L12.4691 34.78V35.04L12.4291 35.1L12.4091 35.26V35.28C12.4091 35.34 12.3891 35.4 12.3691 35.46ZM27.1091 20.88L26.9491 21.06L26.7491 21.28L26.6691 21.44L26.5291 21.62L26.4291 21.78C26.1891 22.1 25.9691 22.42 25.7491 22.74L25.6891 22.8L25.4291 23.16V23.2L25.4091 23.22H25.3691L25.3091 23.36L25.2891 23.38L25.1691 23.48L25.1291 23.54L25.0091 23.68L24.7491 24.08L24.4691 24.46L24.3691 24.62L24.1291 24.96L23.4491 25.74L23.0891 26.18L23.0091 26.28C22.7491 26.64 22.4691 27 22.1891 27.34C21.8891 27.66 21.5691 28.04 21.3091 28.42L20.4891 29.48C20.1291 29.92 19.7691 30.38 19.3891 30.82L19.4091 30.78C17.8291 33.02 17.0691 33.5 16.5291 34.16C16.0091 34.8 15.4291 35.16 14.8891 35.58L14.3491 35.9L14.1091 36.14L13.7691 36.38C13.5091 36.54 13.2491 36.68 12.9491 36.76L12.7291 36.72C12.7091 36.7 12.7091 36.66 12.6891 36.62C12.6491 36.34 12.6691 36 12.7091 35.66V35.6C12.7091 35.56 12.7291 35.52 12.7291 35.48L12.7891 35.32V35.22L12.8891 35.1L12.9291 34.9L12.9691 34.62V34.6C13.3691 33.62 13.8291 32.7 14.2891 31.76C14.4691 31.4 14.6091 31.08 14.8291 30.74C14.8491 30.72 14.8491 30.7 14.8491 30.68L15.1491 30.26L15.4091 30.04L15.5091 29.74C15.6891 29.48 15.9291 29.2 16.2091 28.88L16.5891 28.38L17.3091 27.6L17.9491 26.86L18.2891 26.38L18.3891 26.32L18.5291 26.18L18.8091 25.86L18.8491 25.82L18.9691 25.68L18.9891 25.6L19.3491 25.24L19.5091 25.14L19.6491 24.94L19.6891 24.9C20.3091 24.26 20.9691 23.66 21.6491 23.04L21.8891 22.9L22.0491 22.7L22.1091 22.64C22.9491 21.9 23.8291 21.18 24.7291 20.48H24.7691L24.9291 20.32L25.9091 19.6L26.0491 19.58L26.1891 19.42L26.8091 19H26.8891L26.9291 18.94L27.0291 18.88V18.84L27.1091 18.8H27.1291L27.1491 18.76L27.9891 18.22L28.4091 18.04L28.4891 17.94L28.6491 17.86L28.6891 17.78C28.9891 17.6 29.2891 17.42 29.6091 17.26L29.6491 17.24L29.3891 17.72L28.7691 18.52L28.5691 18.84L28.1891 19.38L28.0891 19.56V19.58H28.0691L27.7491 20L27.7291 20.06L27.1091 20.88ZM26.8091 15.28L26.7491 15.34L26.5691 15.44L26.4691 15.46L26.4291 15.52L26.3491 15.58C26.2091 15.68 26.0491 15.76 25.8891 15.86L25.6891 15.94L25.4491 16.1L25.4091 16.14L25.2491 16.16L25.1891 16.22C25.0691 16.26 24.9291 16.32 24.8091 16.34C24.7091 16.36 24.6291 16.38 24.5491 16.38L24.5091 16.36L24.4891 16.28L24.5091 16.22L24.5491 16.14L24.6091 16.04L24.6491 16L24.7691 15.68L25.1691 15.2L25.2491 15.14L25.3491 14.98L25.3891 14.92L25.4091 14.88L25.7891 14.52L26.2091 14.16L26.6291 13.84L26.9891 13.6L27.1291 13.48L27.3291 13.36L27.4891 13.24L27.5291 13.18C27.8691 12.94 28.2091 12.72 28.5291 12.52C28.6091 12.46 28.6891 12.4 28.7891 12.36L29.0691 12.22L29.3291 12.14L29.4691 12.08L29.6291 11.96L29.8691 11.8L30.0291 11.7L30.1691 11.62C30.5491 11.44 31.0291 11.28 31.2891 11.28L31.3491 11.32L31.3891 11.42L31.3691 11.58L31.2291 11.74L31.2091 11.84L31.1291 11.9L30.9491 12.12L30.7091 12.34L30.6491 12.42L30.5291 12.62V12.8L30.6091 12.92L30.5891 12.94V12.92L30.3291 13.04L30.2691 13.06H30.2491L30.1891 13.12H30.1091L30.0691 13.16L30.1091 13.1H30.0691L30.0491 13.08L29.9891 13.1L29.9691 13.16L29.9891 13.18L29.7891 13.3L29.6291 13.38H29.5491L29.4291 13.46L29.1891 13.68L28.9691 13.78L28.9091 13.86L28.8691 13.9L28.8291 13.92H28.7891L28.7691 13.94H28.7891L28.7691 14L28.1691 14.4H28.0691L28.0291 14.46L27.9291 14.52L27.9091 14.58H27.8891L27.8091 14.6L27.7291 14.7L27.3891 14.94H27.3691L26.8091 15.28ZM40.6286 13.68L40.6486 13.32L40.5486 13.08L40.4886 12.94L40.2486 12.68L40.0886 12.58L40.0086 12.52L39.9686 12.5L39.9086 12.44H39.8686C39.7286 12.38 39.5486 12.3 39.3486 12.24L39.4486 12.18L39.8086 12.14H39.9686L40.1286 12.08C40.4886 12.04 40.8086 11.98 41.1286 11.94L41.4486 11.96L41.5486 11.9L41.7286 11.86L41.7686 11.84C42.3486 11.76 42.9686 11.68 43.8486 11.62C44.0486 11.6 44.1486 11.56 44.3686 11.56L44.6086 11.54H44.9086C45.2286 11.54 45.7886 11.54 46.2286 11.64L46.5286 11.72L46.6886 11.84L46.8886 11.94L46.9486 12.04C46.9486 12.08 46.9686 12.1 46.9686 12.12L46.8286 12.48L46.7886 12.58C46.7486 12.66 46.6886 12.76 46.6686 12.84V12.88L46.6286 12.94V13.1L46.7486 13.06L46.8286 12.94C46.8286 12.92 46.8486 12.9 46.8686 12.88V12.86L46.9486 12.74L47.1286 12.42L47.1886 12.28L47.3086 12.18V12.12L47.2286 12L47.1686 11.88L47.0686 11.84L47.0086 11.78H46.9686C46.8486 11.7 46.7486 11.62 46.6286 11.56L46.5686 11.48H46.4886L46.4086 11.42C46.2886 11.38 46.0886 11.34 45.8486 11.3L45.7686 11.28L45.6086 11.26L45.5286 11.28H45.4686L45.3486 11.22L45.2086 11.24H45.1686L44.9886 11.22H44.8486L44.7286 11.26H44.6086L44.5686 11.22H44.5286L44.4886 11.24L44.4086 11.26C44.2886 11.26 44.1686 11.28 44.0686 11.28C43.9886 11.3 43.8886 11.3 43.8086 11.3H43.7886L43.5486 11.28L43.3886 11.3H42.9886L42.7886 11.32L42.6686 11.34L42.3486 11.44L42.0486 11.46L41.8086 11.52L41.7886 11.54L41.2286 11.6C41.1486 11.54 41.0886 11.5 41.0086 11.48L40.9486 11.42L40.8086 11.44C40.6686 11.42 40.5286 11.44 40.3886 11.46L40.2086 11.48L40.0486 11.5L39.9486 11.56L39.8886 11.58L39.7286 11.66L39.5486 11.78C39.4886 11.82 39.4286 11.86 39.3686 11.88L39.0286 11.92L38.9686 11.9L38.5886 11.96L38.2686 11.94L38.0486 11.98C37.7086 11.92 37.3886 11.9 37.0886 11.9L36.7886 11.82L36.6286 11.76L36.4286 11.78L36.2286 11.82L36.0686 11.88L35.9086 12.12L35.8886 12.26L35.9486 12.36L36.0686 12.44L36.3086 12.5L36.7686 12.48H36.7886C37.0086 12.48 37.2286 12.44 37.4086 12.42H37.6486L37.7086 12.44L37.7286 12.42L37.7886 12.4C37.9086 12.4 38.0286 12.38 38.1686 12.36L38.4486 12.4C38.2686 12.5 38.0886 12.64 37.8886 12.76L37.7086 12.86L37.5486 12.94L37.2886 13.16L37.0086 13.26L36.8286 13.42L36.6886 13.58L36.5086 13.7L36.4486 13.72L36.3486 13.82L35.8686 14.18L35.8486 14.14L35.8086 14.2L35.6486 14.3L35.6086 14.34L35.5086 14.36L35.3886 14.46L34.9486 14.8L34.8686 14.88L34.8086 14.98L34.5086 15.28L34.1686 15.52L34.1286 15.58L33.9886 15.68L33.7486 15.92L33.6686 16.04L33.5286 16.38L33.3886 16.74L33.4086 16.86L33.4686 16.84V17.02C33.4886 17.16 33.9086 17.36 33.9886 17.42C34.0886 17.46 34.1686 17.48 34.2886 17.5C34.3086 17.5 34.3486 17.48 34.3686 17.48V17.5L34.7286 17.54L35.1086 17.56H35.2486L35.3886 17.6L35.4486 17.58L35.5286 17.48L35.5886 17.46L35.6686 17.4C35.9486 17.32 36.2286 17.2 36.5486 17.08H36.5886L36.7086 17.06L36.7886 17.02L37.0086 17L37.0886 16.98L37.2286 16.88L37.3086 16.78L37.4486 16.74L37.5486 16.64H37.5686L37.7286 16.52H37.8086V16.46C37.8286 16.46 37.8286 16.46 37.8486 16.44H37.9286L37.9686 16.4V16.38L38.1886 16.24H38.2486V16.2C38.6686 15.94 39.0886 15.66 39.4286 15.36L39.4686 15.34L39.6286 15.22L39.7286 15.12L39.8086 15.02L40.0086 14.82L40.1886 14.7L40.3286 14.5L40.4486 14.3C40.4686 14.24 40.4486 14.18 40.4686 14.14L40.5486 13.98C40.5886 13.88 40.6086 13.78 40.6286 13.68ZM39.6886 14.46H39.6486L39.6086 14.52L39.5486 14.58L39.5086 14.66L39.4286 14.68L39.3686 14.78L39.2486 14.92L39.1286 15.02L39.0886 15.08L39.0286 15.16C38.8686 15.3 38.7086 15.44 38.5486 15.56L38.5086 15.58L38.4486 15.64L37.8286 16.06H37.7886L37.7086 16.08L37.3686 16.26L37.2086 16.42L36.9686 16.54H36.9086L36.8886 16.58C36.6086 16.7 36.3086 16.82 36.0286 16.9C35.3686 17.12 35.2286 17.18 34.5686 17.14C34.5286 17.14 34.4886 17.12 34.4486 17.12L34.3286 17.04H34.2886C34.1886 16.96 34.1486 16.82 34.1286 16.66L34.1486 16.6L34.1686 16.56V16.44L34.2086 16.34L34.2286 16.26V16.22C34.2886 16.06 34.4086 15.88 34.5486 15.72C34.5686 15.72 34.5686 15.7 34.5886 15.7L34.6886 15.56L34.8686 15.32L35.0886 15.06L35.1086 15.04L35.3886 14.84L35.4886 14.76L35.7086 14.62L35.9486 14.46L36.2486 14.3L36.3486 14.22L36.3686 14.2L36.7686 13.94L36.9086 13.86L37.1086 13.72L37.8286 13.3L37.9686 13.18L38.1486 13.04C38.5086 12.8 38.7486 12.6 39.0086 12.44C39.0086 12.44 39.0286 12.46 39.0486 12.46L39.1686 12.5L39.3286 12.6L39.5086 12.66L39.6486 12.72L39.8086 12.82L39.9486 12.92L40.0686 13.04L40.1686 13.24V13.26L40.1486 13.54L40.0686 13.72V13.84C39.9886 14.04 39.8486 14.24 39.6886 14.46ZM40.2486 11.76C40.4486 11.68 40.7086 11.58 40.8486 11.66L40.2486 11.76ZM44.6094 15.36L44.7094 15.26L44.8294 15.06L44.9694 14.76L45.2094 14.38L45.3294 14.18L45.3694 14.1L45.4894 13.96L45.6694 13.66L45.7494 13.52L45.7894 13.4L45.9094 13.22C45.9094 13.22 45.9294 13.24 45.9294 13.22C46.0494 13.1 46.1494 12.94 46.2494 12.8H46.2694L46.3294 12.66L46.4094 12.56L46.5894 12.36L46.7094 12.34L46.9294 12.06L46.9094 12.02C47.1294 11.76 47.3294 11.48 47.3294 11.24L47.3494 11.18L47.3294 11.16C47.3094 11.06 47.2294 10.96 47.0694 10.9L47.1694 10.86L47.1894 10.84L47.1494 10.8H47.0894L47.0094 10.78L46.9294 10.84V10.88L46.8494 10.92L46.7494 10.9L46.6094 10.88H46.5094L46.4294 10.96H46.3894L46.3494 10.98V11.08L46.2494 11.1L46.2894 11.12L46.2694 11.18V11.26L46.2094 11.36L46.1094 11.3L46.0294 11.42L46.0494 11.5H46.0894L46.0494 11.52H46.0894L46.0094 11.54L45.9694 11.58V11.64L46.0694 11.68L46.0894 11.66L46.1294 11.72L46.1094 11.76L46.0494 11.86L46.0294 11.92V11.96L45.9894 12C45.9894 12.1 46.0694 12.2 46.1694 12.1L46.2494 12L46.2694 12.02L46.2094 12.1L46.2294 12.06L46.1694 12.12L46.2494 12.16V12.22L46.2294 12.32L46.1694 12.46L46.0494 12.6L45.9894 12.56L45.8694 12.58L45.7494 12.78V12.84L45.6094 13.04L45.5694 13.08L45.5494 13.14L45.4494 13.32L45.3694 13.44L45.1694 13.78L44.8294 14.2V14.28L44.5694 14.68L44.5094 14.72L44.2894 15L44.2494 15.12L44.1094 15.24L43.9894 15.54L43.8894 15.74L43.8294 15.76L43.6894 15.96L43.4494 16.3L43.3894 16.34H43.3494L43.1694 16.48V16.52L43.1094 16.62L43.0294 16.68V16.72L43.0094 16.76L42.8694 16.96L42.7894 17.2L42.7294 17.34L42.7494 17.42L42.7894 17.38L42.7294 17.62L42.6894 17.66V17.74C42.6694 17.82 42.6894 17.88 42.7294 17.94V17.96L42.8294 18.1L43.0094 18.14L43.2094 18L43.5294 17.76L43.6494 17.64L43.6894 17.54L43.7094 17.5L43.7494 17.38L43.8494 17.2L43.9294 17.1L44.0294 16.94L44.3694 16.6L44.5694 16.42L44.6494 16.32L44.7294 16.26L44.8094 16.12L45.0094 15.92L45.0894 15.86L45.1894 15.76L45.3694 15.56L45.5294 15.42L45.5494 15.38L45.6894 15.24L45.8494 15.14L45.9294 15.1L46.1694 14.88L46.4294 14.6L46.5694 14.5L46.6894 14.32L47.5494 13.6L48.1294 13.22L48.2494 13.08L48.5494 12.88L48.7294 12.74L48.8294 12.68L49.2094 12.48L49.3294 12.36L49.6294 12.18L50.4294 11.76L50.5294 11.66L50.6494 11.6C50.7694 11.54 51.0894 11.38 51.4694 11.22L52.2694 11.06L52.3894 11.04L52.6094 10.94L52.7694 10.96L52.8694 10.94L53.1494 10.82L53.4494 10.78L53.5294 10.88L53.5694 11.14L53.5894 11.28L53.5694 11.38L53.5294 11.4V11.5L53.6294 11.42V11.62L53.7494 11.76H53.9694L54.2094 11.68L54.4494 11.2L54.4894 10.68L54.3494 10.52C54.3494 10.48 54.3294 10.46 54.3094 10.44C54.2494 10.38 54.1694 10.32 54.0694 10.28L53.9894 10.2L53.8694 10.24C53.6094 10.22 53.2894 10.28 52.9494 10.38L52.6894 10.4L52.5494 10.46L52.3294 10.54L52.1494 10.64L52.0894 10.68L51.7294 10.8L51.3694 10.94L51.2494 11.04C50.9694 11.16 50.7294 11.28 50.5894 11.36L50.4094 11.44L49.9894 11.58L49.7694 11.7L49.5494 11.9L49.2494 12.02L49.1294 12.1L48.9694 12.26L48.5694 12.5H48.5494L48.5094 12.54L48.3294 12.66L48.2494 12.68L48.1494 12.78L47.7894 13.02V13L47.2294 13.4L47.2094 13.42L46.8294 13.72H46.8094L46.7694 13.76L46.4294 14.02L46.0694 14.24L45.7494 14.56H45.6894L45.3294 14.9H45.2094L45.2894 14.98L45.1294 15.04V15.06H45.0894L45.0494 15.08L44.9694 15.14L44.6894 15.34L44.5294 15.48L44.5694 15.4L44.6094 15.36ZM78.118 16.86L77.938 17L77.758 17.22L77.578 17.36L77.018 17.98L76.378 18.52L76.158 18.76L75.778 19.12L75.638 19.26L75.318 19.56L75.218 19.7L74.678 20.16L74.498 20.28L74.298 20.42L74.118 20.66L73.898 20.9L73.218 21.48L73.158 21.52C72.378 22.14 71.598 22.72 70.778 23.3L70.538 23.38L70.338 23.54L70.158 23.66L69.578 24L69.438 24.08L69.058 24.3L68.858 24.36L68.418 24.64L68.138 24.78L67.418 25.18L66.698 25.54L66.498 25.66L66.278 25.76L65.658 26.12L65.238 26.34L65.058 26.58L64.758 26.76L64.678 26.8L64.538 26.82H64.518L64.478 26.8H64.458V26.82L64.158 26.8H63.858L63.718 26.82L63.418 26.96L63.158 27.2L63.098 27.22L62.698 27.38C62.358 27.42 62.038 27.46 61.718 27.46L61.638 27.44H61.478L60.918 27.28H60.698L60.358 27.18H60.298C59.838 26.96 59.418 26.62 59.098 26.12C58.898 25.84 58.778 25.54 58.678 25.26L58.658 25.18C58.658 25.16 58.658 25.12 58.638 25.1V24.96L58.618 24.82V24.28L58.598 24.08L58.638 23.94L58.678 23.88L58.718 23.66L58.798 23.4V23.26L58.838 23.08C58.878 22.96 58.918 22.84 58.978 22.72L59.018 22.68L59.058 22.62L59.098 22.46L59.198 22.32L59.398 21.92L59.658 21.54L59.718 21.38L60.078 20.88L60.318 20.56L60.658 20.18L61.018 19.78L61.098 19.72L61.418 19.44L61.518 19.38V19.3L61.698 19.14L61.798 19.06L62.338 18.7L62.578 18.34C63.078 17.92 63.598 17.52 64.118 17.16L64.198 17.12L64.338 17.06L64.518 16.94L64.618 16.88L64.718 16.8H64.738L64.838 16.76L64.898 16.7L64.958 16.68L65.018 16.64L65.078 16.62L65.418 16.44L65.458 16.38L65.538 16.36L65.738 16.24L65.758 16.2L65.878 16.14L65.978 16.06L66.418 15.74C67.578 15.1 68.738 14.52 69.938 13.94L70.178 13.86L70.318 13.78C70.738 13.58 71.318 13.38 71.938 13.16L72.058 13.12H72.078L72.558 12.96L72.698 12.92L72.818 12.88L73.798 12.6L74.078 12.56L74.358 12.44L74.698 12.34L75.558 12.12L75.658 12.1L76.038 12L76.058 11.98C76.678 11.8 77.258 11.66 77.718 11.52H77.738L78.218 11.4L78.318 11.38L78.798 11.28L79.658 11.12L80.378 10.98L81.038 10.86L81.358 10.8L81.338 10.78L81.738 10.7L81.438 10.62L81.078 10.68H80.878L80.818 10.7H80.738L80.358 10.8C80.318 10.8 80.278 10.8 80.238 10.82H80.138L79.438 10.92L79.378 10.96C79.318 10.98 79.238 11 79.158 11L78.958 11.02H78.858L78.698 11.06L78.358 11.14V11.12L77.818 11.2L77.638 11.28L77.398 11.38L77.178 11.48L76.558 11.66L76.418 11.64H76.358L76.178 11.74L75.678 11.88L75.098 12.04L74.978 12.06L74.778 12.1L74.658 12.16C74.618 12.16 74.578 12.18 74.538 12.18L74.438 12.2L74.418 12.22C74.158 12.28 73.898 12.36 73.638 12.44H73.598L72.998 12.6L72.898 12.62L72.758 12.64L72.498 12.74L72.338 12.8L72.218 12.84C72.158 12.86 72.118 12.88 72.078 12.88L71.898 12.92L71.438 13.06L71.378 13.12C70.658 13.36 70.018 13.6 69.518 13.82L69.378 13.86V13.88C69.358 13.88 69.338 13.9 69.318 13.9L69.218 13.94L69.158 13.98L69.078 14.02L68.638 14.18L67.798 14.54L67.778 14.6L67.578 14.74L67.538 14.8C66.698 15.24 65.858 15.7 65.058 16.18L64.518 16.42L64.478 16.46L64.338 16.62L63.418 17.2L63.178 17.34L62.998 17.46L62.898 17.6L62.798 17.68C62.198 18.12 61.598 18.58 61.038 19.06L60.938 19.16L60.558 19.52L60.458 19.58L60.338 19.76C59.898 20.22 59.518 20.72 59.198 21.24C58.998 21.76 58.678 22.12 58.378 22.52L58.258 22.62L58.198 22.68L58.178 22.74L58.138 22.72V22.76H58.158V22.84C58.038 23.04 57.918 23.26 57.818 23.52C57.718 23.94 57.718 24.38 57.798 24.8L57.778 24.82V25.02L57.738 24.98V25.04L57.798 25.06L57.758 25.08L57.718 25.18V25.3L57.758 25.38L57.818 25.42L57.878 25.48L58.138 25.88C58.178 25.96 58.218 26.04 58.278 26.12V26.14L58.318 26.18C58.438 26.38 58.598 26.58 58.758 26.76V26.78L58.878 26.96L58.818 26.94L58.838 27.04L58.898 27.14H58.958L58.918 27.04L58.978 27.12L59.078 27.22L59.258 27.28L59.298 27.38L59.318 27.4L59.358 27.42L59.498 27.4L59.518 27.42L59.558 27.52L59.638 27.56L59.738 27.62L59.898 27.68L59.958 27.66H59.978C60.218 27.76 60.478 27.82 60.738 27.86C61.478 27.82 62.198 27.74 62.938 27.6L62.998 27.7H63.058L63.178 27.58L64.218 27.48L64.418 27.44L64.598 27.36L64.658 27.3L64.818 27.2L64.938 27.12L64.978 27.14L65.098 27.08L65.178 27.02L65.258 27L65.358 26.96H65.418L65.878 26.76L65.938 26.7L66.338 26.54V26.5C66.558 26.42 66.758 26.32 66.958 26.22L67.398 26.04L67.778 25.76C67.958 25.64 68.138 25.54 68.318 25.44C68.518 25.28 68.718 25.14 68.918 25.02L68.998 24.96L69.318 24.74C69.398 24.74 69.438 24.76 69.538 24.72L69.738 24.54L70.438 24.08C70.578 23.98 70.738 23.88 70.898 23.8L70.918 23.84H71.018L71.118 23.82L71.238 23.62L71.458 23.44C71.778 23.22 72.078 23 72.398 22.74L73.358 21.92H73.378L73.478 21.84L73.578 21.78L74.138 21.34L74.238 21.24L74.358 21.16L74.718 20.88L74.758 20.82L74.958 20.66L75.118 20.48L76.218 19.24L76.238 19.2L77.418 17.94L77.718 17.68L77.878 17.5L78.118 17.26L78.178 17.18L78.338 16.9C78.978 16.18 79.578 15.44 80.178 14.68L80.198 14.66C80.278 14.54 80.438 14.44 80.518 14.32L80.638 14.16L80.658 14.14L80.678 14.04L80.798 13.88L80.858 13.82L81.178 13.4L81.338 13.38L81.378 13.36L81.358 13.3L81.458 13.1L81.578 12.98L81.598 12.94L81.938 12.56L82.018 12.42L82.098 12.3L82.238 12.12L82.358 11.94L82.418 11.82L82.438 11.72C82.638 11.46 82.838 11.14 83.098 10.74L83.138 10.72L83.118 10.7L83.178 10.62L83.198 10.58L83.478 10.28L83.578 10.12L83.718 9.94L83.818 9.9L83.938 9.76L84.038 9.4L84.198 9.16L84.238 9.04L84.278 9L84.318 8.94L84.378 8.92L84.358 8.9L84.298 8.92V8.86L84.278 8.8H84.238L84.418 8.56L84.338 8.5L84.398 8.48L84.578 8.3L84.738 7.88L84.938 7.62L85.018 7.5L85.058 7.4L85.098 7.36L85.118 7.38V7.34L85.058 7.32L85.118 7.22L85.098 7.16L85.138 7.1L85.178 7.08L85.198 7.06L85.238 7L85.318 6.94L85.338 6.96H85.378L85.438 6.88V6.82H85.378L85.458 6.72L85.518 6.62L85.638 6.5L85.698 6.46L85.798 6.34L85.898 6.04L86.038 5.84L86.058 5.74L86.098 5.68L86.118 5.64L86.158 5.66L86.138 5.62L86.118 5.6L86.138 5.54L86.118 5.48L86.018 5.44L85.958 5.42L86.018 5.38L86.118 5.34L86.238 5.22L86.338 4.94L86.398 4.7L86.358 4.62H86.318C86.458 4.36 86.518 4.06 86.658 3.8L86.878 3.16L87.038 2.82C87.098 2.72 87.158 2.58 87.198 2.44L87.158 2.12L87.098 2.02L87.018 1.98H86.978L86.918 1.88H86.878C86.718 1.92 86.638 2 86.538 2.12L86.278 2.5H86.258L86.178 2.66V2.8L86.138 2.76L86.078 2.78L86.038 2.88L86.018 3L86.038 3.08L86.098 3.12L86.138 3.2V3.3L86.178 3.34L86.158 3.44C86.098 3.62 86.078 3.8 85.998 4C85.978 4.08 85.998 4.18 85.938 4.26C85.818 4.42 85.818 4.44 85.818 4.44L85.798 4.58L85.578 5.02L85.518 5.42L85.438 5.52V5.66L85.258 5.96L85.138 6.32L85.058 6.36L85.098 6.4L84.938 6.64L84.918 6.86L84.838 6.8L84.858 6.94V6.96L84.578 7.24L84.378 7.64L84.318 7.84L84.158 8.06V8.08C84.018 8.32 83.918 8.64 83.838 8.9L83.658 9.04L83.518 9.26L83.478 9.36L83.458 9.52V9.56L83.138 10.04L83.038 10.18L82.978 10.34L82.858 10.58L82.578 10.98L82.478 11.14L82.258 11.44L82.198 11.62L81.838 12.08L81.538 12.38L81.418 12.64L81.278 12.86L80.938 13.34L80.818 13.52L80.758 13.56L80.578 13.8V13.84C80.558 13.84 80.558 13.86 80.558 13.86H80.518L80.478 13.94H80.458L80.338 14.06L80.318 14.1L80.198 14.14L80.118 14.3L80.058 14.44L79.938 14.6L79.718 14.88L79.638 14.98L79.538 15.08L79.498 15.16L79.298 15.38L79.278 15.44L79.218 15.48V15.54L79.118 15.66L78.958 15.84L78.918 15.86V15.9L78.778 16.02L78.718 16.12L78.698 16.1L78.678 16.16C78.598 16.26 78.518 16.38 78.418 16.46L78.318 16.64L78.138 16.84L78.118 16.86ZM92.318 0.4L92.218 0.36H92.138L91.738 0.34L91.598 0.36L91.378 0.34L91.298 0.36L90.938 0.34L90.898 0.320001H90.778L90.698 0.3H90.638L90.698 0.280001V0.26L90.678 0.239999H90.598L90.538 0.280001L90.578 0.320001L90.458 0.3L90.318 0.320001L90.158 0.3L90.098 0.280001H89.938L89.658 0.38C89.378 0.38 89.098 0.36 88.818 0.36L88.758 0.280001L88.678 0.239999L88.498 0.320001L88.218 0.34C87.758 0.34 87.298 0.36 86.838 0.38H86.798L85.598 0.460001H84.678L84.578 0.500001L84.418 0.460001L83.958 0.48L83.918 0.56H83.618L83.378 0.599999L82.838 0.680001L82.438 0.779999L81.698 0.860001C80.698 0.98 79.718 1.14 78.738 1.3H78.398L78.258 1.38C77.158 1.56 76.078 1.78 75.018 2.04L74.938 2.02L74.618 2.14L74.398 2.04L74.118 2.12L73.758 2.26L73.358 2.34L73.258 2.4L72.938 2.46L72.738 2.56L71.858 2.76L71.758 2.74H71.698L71.538 2.84H71.438L71.238 2.86L71.098 2.88L71.238 2.82V2.78L71.198 2.76L70.998 2.78L70.858 2.92L70.958 2.98L70.658 3.02L70.378 3.16L69.978 3.24L69.838 3.22L69.418 3.32L68.838 3.68L68.498 3.72L68.438 3.76L68.358 3.84H68.338L68.178 3.88L68.138 3.9L67.798 3.98L67.378 4.14L66.858 4.26L66.638 4.32L66.078 4.46L65.538 4.62L64.818 4.96L64.518 5.2L64.238 5.34L64.098 5.32L64.078 5.38L64.158 5.46L64.038 5.6L63.978 5.82L64.078 5.94L63.978 6.12L64.138 6.18V6.2L64.238 6.28L64.398 6.3H64.658L64.918 6.24L65.078 6.22L65.098 6.16L65.258 6.14L65.278 6.12C65.958 5.96 65.358 5.96 66.018 5.7L66.138 5.68L66.418 5.52L66.578 5.28L66.598 5.24V5.16L66.638 5.08L66.938 4.96L67.078 4.86L67.678 4.62H67.718L67.818 4.7H68.438L68.918 4.5L69.098 4.42L69.418 4.14L69.518 4.02L70.038 3.74L71.018 3.44H71.198L71.358 3.38L71.558 3.32L72.098 3.2L72.158 3.22L72.378 3.18L72.398 3.16H72.438L72.498 3.14H72.638L72.698 3.08L72.998 2.9C73.178 2.86 73.378 2.82 73.558 2.76H73.678L73.898 2.68C73.958 2.66 73.998 2.64 74.038 2.64L74.118 2.66L74.478 2.64L74.818 2.56L74.998 2.46L75.118 2.38L75.438 2.32L75.658 2.38L75.878 2.3L76.298 2.24L76.418 2.14L76.518 2.16L77.438 2.04L77.938 1.92L78.618 1.78L78.878 1.7L79.298 1.64L79.418 1.66L79.718 1.64L79.838 1.56L81.338 1.26C82.578 1.1 83.858 0.96 85.118 0.860001L85.758 0.8L85.878 0.819999L85.958 0.8C86.078 0.8 86.218 0.779999 86.358 0.779999L86.558 0.84L87.158 0.92L87.238 0.900001L87.398 0.819999L87.558 0.720001L87.578 0.74L87.598 0.7H87.638L87.698 0.720001H87.758L87.938 0.7L88.138 0.720001H88.458L88.898 0.74L89.058 0.720001L89.098 0.74L89.118 0.76L89.338 0.819999L89.558 0.8L89.638 0.779999L89.758 0.720001L90.238 0.74H90.918L91.178 0.76L91.318 0.74L91.718 0.76L91.878 0.779999L92.018 0.819999L92.198 0.779999H92.398L92.958 0.8L92.998 0.84H93.218L93.258 0.819999L93.278 0.84H93.358L93.438 0.860001L93.558 0.819999V0.8C94.778 0.92 95.998 1.08 97.218 1.36L97.538 1.46L97.798 1.54L98.198 1.7L98.338 1.72L98.698 1.86L98.858 1.88L99.358 2.08L99.538 2.16L99.718 2.28L99.938 2.3L100.198 2.36L100.858 2.62L100.918 2.66L101.198 2.76L101.238 2.74L101.278 2.8L101.358 2.82L101.458 2.88L101.538 2.9L101.618 2.88L101.638 2.76L101.618 2.7L101.558 2.66H101.398L100.718 2.4L100.538 2.3L100.358 2.24L100.258 2.22L99.938 2.1V2.08H99.898L99.438 1.88L98.298 1.42C97.778 1.24 97.258 1.08 96.718 0.96L96.498 0.860001L96.278 0.84L96.078 0.8L96.058 0.819999C95.818 0.76 95.598 0.720001 95.358 0.680001C94.538 0.56 93.678 0.48 92.838 0.44C92.698 0.44 92.538 0.44 92.398 0.419999L92.318 0.4ZM82.818 10.7L82.858 10.66L82.818 10.72V10.7ZM90.3442 15.5L90.1842 15.7L90.1242 15.8L89.9842 15.98L89.9642 16.06L89.9042 16.2C89.8642 16.32 89.8642 16.38 89.8842 16.46L89.9042 16.54L89.8842 16.64L89.9442 16.72L90.0242 16.76L90.1242 16.8H90.2642L90.3042 16.82H90.5242L90.6642 16.78L90.6842 16.76L90.7242 16.78L90.7642 16.74L90.8242 16.72L90.8442 16.76L90.8642 16.74L90.9642 16.66L91.2642 16.56L91.6042 16.44L91.6242 16.4L91.7842 16.34L91.8042 16.36V16.32L92.3242 16.14L92.3642 16.1L92.4242 16.08L92.5842 15.98L92.7242 15.92H92.7442L92.9042 15.86L93.0042 15.8L93.2042 15.72L93.2842 15.68L93.7242 15.52L94.1042 15.4L94.4442 15.26L94.9042 15.04L95.0642 14.98L95.3842 14.9H95.4642L95.7042 14.78L96.0442 14.7H96.2042L96.2842 14.64L96.2642 14.5H96.2242C96.2042 14.48 96.1842 14.48 96.1642 14.48L95.6642 14.64H95.5642L94.6042 14.92L94.5442 14.98L94.3642 15.04L94.3042 15V15.04L93.6442 15.22L93.5642 15.28L93.4842 15.3L93.3242 15.38L93.0642 15.46V15.44L92.8442 15.5L92.7842 15.54L92.0842 15.74H91.9642L91.8242 15.8L91.6642 15.84C91.4842 15.88 91.3642 15.92 91.2242 15.94L91.1842 15.92L91.0842 15.94H90.9442L90.9042 15.96H90.7642L90.6642 15.98C90.6442 15.98 90.6242 15.96 90.6042 15.96C90.5242 15.94 90.5442 15.98 90.5442 15.92C90.5242 15.88 90.5442 15.8 90.5842 15.72L90.6042 15.7L90.6642 15.54C90.6842 15.5 90.7042 15.44 90.7442 15.4L90.9042 15.18L90.9442 15.1L90.9842 15.04L91.1042 14.88L91.1442 14.86V14.84L91.1842 14.8L91.4242 14.52L91.4842 14.5L91.6042 14.4L91.7442 14.18C91.7842 14.14 91.8242 14.1 91.8442 14.06L91.9642 13.96L92.0042 13.88L92.0442 13.82L92.0842 13.78L92.1042 13.8L92.1242 13.76H92.0842L92.1042 13.7V13.62L92.0642 13.6V13.58C92.0242 13.5 91.9842 13.46 91.9042 13.44L91.8242 13.38L91.6842 13.3L91.5042 13.26H91.2642L90.6442 13.4L90.3842 13.56L90.1442 13.72L90.0442 13.8L89.8842 13.9L89.7842 13.98L89.4242 14.16L89.2442 14.3L88.8842 14.48L88.7642 14.52L88.2042 14.78L88.0642 14.88L87.5242 15.16L87.3842 15.24L87.2242 15.32L86.9242 15.46L86.8442 15.48L86.7842 15.54L86.7442 15.56V15.58L86.6042 15.64L86.5042 15.72C86.2842 15.84 86.0442 15.94 85.8242 16.04H85.6642L85.5642 16.12L85.4242 16.2L85.3242 16.26C85.0642 16.38 84.8042 16.5 84.5442 16.6L84.4442 16.62H84.4242L84.1442 16.72L83.9642 16.76L83.5442 16.92L83.4842 16.88L83.4242 16.78L83.3842 16.72V16.6L83.4042 16.56V16.52L83.4842 16.4L83.5842 16.28L83.6442 16.2L83.7242 16.14L83.7642 16.1V16.06L83.7842 16.02L83.7642 15.9V15.86L83.9642 15.62L84.0642 15.5L84.1642 15.4L84.2042 15.32L84.2842 15.22L84.3242 15.12H84.3642L84.4242 15.04L84.4642 14.96L84.5242 14.92L84.5642 14.88L84.6242 14.84L84.8642 14.54L84.9042 14.48L84.9442 14.44L85.1242 14.24L85.1842 14.18L85.3642 14.08L85.5042 14L85.6442 13.86L85.8242 13.66L85.9042 13.58L86.8042 12.92L86.8442 12.9L86.8642 12.88L87.0442 12.74C87.0442 12.76 87.0442 12.76 87.0642 12.74C87.1842 12.66 87.2842 12.58 87.4042 12.52L87.7242 12.38L88.1842 12.18L88.5042 12.04L88.7842 11.92H88.9242L89.0642 11.9H89.1042V11.92H89.1842V11.9L89.5042 11.94H89.8642L90.0042 11.92L90.2242 11.86C90.2442 11.88 90.3042 11.9 90.3642 11.86C90.5042 11.72 90.5642 11.68 90.5842 11.62L90.6442 11.58V11.4L90.6042 11.3L90.5242 11.28L90.5042 11.24L90.4442 11.2H90.3642V11.18H90.3242L90.2442 11.16H90.1242L90.0042 11.18L89.8042 11.12L89.7242 11.14L89.5842 11.18L89.4642 11.22L89.3242 11.24L89.2242 11.3H89.1642L88.9842 11.36L88.9442 11.38L88.9042 11.36L88.7442 11.4L88.6642 11.44L88.5442 11.54L87.9042 11.86L87.7442 11.92V11.96L87.6642 12.02L87.5642 12.04L87.4842 12.06L87.3442 12.1L87.2842 12.14L87.1442 12.12L87.1042 12.14L87.0242 12.28L86.9242 12.38L86.6842 12.64L86.6642 12.66L86.1442 13.04L85.9842 13.14L85.6442 13.42L85.5842 13.48L85.3242 13.7H85.3042V13.72L84.4042 14.52L84.1642 14.72L84.0042 14.84L83.9242 14.94L83.7642 15.2L83.7242 15.24L83.5042 15.4L83.3642 15.6L83.3242 15.7V15.68L83.2842 15.7L83.2442 15.78L83.1642 15.9L83.1442 15.98L83.0842 16L83.0042 16.24C82.8642 16.56 82.7842 16.86 82.8642 17.12C82.9442 17.34 83.2042 17.4 83.5242 17.36H83.5442L83.6642 17.38H83.7242L83.7842 17.36L83.8242 17.34L84.1242 17.22L84.2042 17.2L84.6042 17.06L84.6842 17C84.7442 16.98 84.8242 16.96 84.8842 16.92H85.0442L85.2842 16.82H85.4642V16.8H85.5042L85.7042 16.68L85.7442 16.64L86.2242 16.38L86.4042 16.3L86.5842 16.24L86.7042 16.14L86.8242 16.06L87.1842 15.84L87.3042 15.8L87.5442 15.66L87.6442 15.62L87.9442 15.46L88.1242 15.38L88.5842 15.12L89.0442 14.9L89.1842 14.82L89.3242 14.76L89.4842 14.66H89.5042L90.0842 14.3L90.1842 14.28L90.3242 14.24L90.9042 14.02L91.1442 13.96H91.3242L91.4242 13.98L91.4442 14L91.3842 14.2L91.3642 14.18V14.22L91.2842 14.32L91.0442 14.58L90.9842 14.62L90.9642 14.66L90.9042 14.72L90.8242 14.88L90.4642 15.32L90.4242 15.38L90.4042 15.42L90.3442 15.5ZM101.061 7.6L101.161 7.5L101.341 7.26L101.461 7.14L101.541 7.04L101.701 6.88L101.741 6.8L101.981 6.54L102.021 6.52L102.041 6.5L102.081 6.42L102.301 6.18L102.381 6.08L102.501 5.96L102.561 5.92L102.661 5.82L102.781 5.5L102.941 5.32L102.981 5.22L103.001 5.16L103.021 5.14H103.061V5.1H103.021C103.121 4.96 103.241 4.82 103.341 4.66L103.481 4.44L103.721 4.08L103.781 4.02L103.961 3.82L104.041 3.72L104.261 3.52L104.441 2.98C104.641 2.7 104.881 2.4 104.961 2.08C104.961 1.98 104.901 1.94 104.821 1.96V1.86L104.621 1.78L104.421 1.74L104.041 2L103.801 2.38L103.781 2.52L103.721 2.88V3.22H103.681V3.28H103.721V3.36L103.641 3.48L103.401 3.88L103.161 4.18L102.841 4.68L102.261 5.36L102.101 5.62L101.901 5.8L101.321 6.64L100.681 7.4L100.481 7.72L100.021 8.2L99.9408 8.36L99.2208 9.14H99.2008L98.9608 9.36L98.4008 9.9L97.7208 10.74L96.9808 11.52L96.1408 12.54L96.0208 12.48L95.9208 12.42L95.8808 12.38L95.9008 12.34H95.8408V12.38H95.7408L95.6208 12.4L95.5008 12.56L95.4408 12.76L95.5808 13.06L95.6608 13.12L95.5808 13.26L95.4808 13.42L95.3208 13.62L95.2408 13.66L95.2008 13.7L95.1608 13.84L95.0808 13.92L94.8408 14.06V14.2L94.6808 14.42L94.5208 14.62L94.3208 14.86L94.2008 14.94L94.0008 15.2L93.8208 15.66L93.5208 16.06L93.5008 16.24H93.4808L93.4008 16.44L93.3608 16.56L93.3208 16.64H93.2408L93.2808 16.68H93.3208L93.2808 16.86L93.3208 16.98L93.5208 17.1L93.7608 17.14L94.1208 16.86L94.2008 16.74L94.2608 16.7V16.66C94.7808 16.4 95.2808 15.86 95.3208 15.84C95.4608 15.76 95.6008 15.66 95.7408 15.56L96.0408 15.46L96.2608 15.2L96.6608 14.96L96.8008 14.82L97.1208 14.58L97.2408 14.46L97.4808 14.28L97.5208 14.32L97.7408 14.5L97.9608 14.72H97.9808L98.1808 14.88L98.8208 15.52L99.3408 16.06L99.5608 16.26L99.8808 16.62L100.021 16.72L100.281 17.06L100.441 17.16L100.821 17.62L100.941 17.8L101.061 18L101.281 18.14L101.521 18.34L102.021 18.94L102.081 19.04L102.301 19.22L102.381 19.24L102.361 19.28L102.441 19.32L102.501 19.46L102.561 19.52H102.681L102.761 19.48V19.32L102.601 19.22L102.061 18.6L101.921 18.42L101.781 18.26L101.701 18.18L101.561 18.06L101.441 17.96V17.9L101.341 17.8L101.241 17.74L101.221 17.64L101.141 17.56L101.081 17.48L100.721 17.08L100.661 17.02L100.601 16.9L100.381 16.64L100.301 16.6L100.181 16.44L100.021 16.36L99.1408 15.34L99.0408 15.3L98.6408 14.84L98.5008 14.72L98.2608 14.5L98.1808 14.42L97.8208 14.04L98.1208 13.86L98.3008 13.66L98.5408 13.46L99.1608 12.9L99.2608 12.88L99.5208 12.66V12.64C99.5408 12.62 99.5608 12.62 99.5608 12.6H99.6008L99.6208 12.56L99.7208 12.5L99.7808 12.48L99.8208 12.44C100.221 12.18 100.641 11.94 101.041 11.76L101.421 11.7L101.541 11.64L101.781 11.54H101.841L102.001 11.52H102.081V11.54L102.161 11.52L102.501 11.32L103.141 11.3L103.321 11.34H103.341L103.461 11.3L103.541 11.36L103.701 11.58L103.901 11.82H103.941L104.241 11.94L104.481 11.78L104.541 11.58H104.521L104.481 11.44L104.401 11.36L104.361 11.34L104.341 11.3L104.261 11.12L104.061 11.04L103.801 10.86L103.461 10.84L103.261 10.9C103.101 10.9 102.941 10.92 102.781 10.96L102.621 10.98L102.581 10.96H102.521L102.421 11L101.901 11.2L101.741 11.24L101.621 11.28L101.581 11.32L101.081 11.5L101.021 11.54H101.001H100.941L100.581 11.72L100.541 11.76H100.461L100.401 11.78L100.321 11.9L99.9808 12.1L99.5808 12.26H99.5408L99.4408 12.38L98.9808 12.72L98.8408 12.8L98.7208 12.88L98.6608 12.96L98.5408 13L98.4608 13.1H98.4208L98.3608 13.16L98.3008 13.24H98.2408L98.1608 13.28H98.1008L97.7808 13.52L97.7408 13.6L97.6608 13.62L97.6008 13.54H97.5008L97.4808 13.62L97.3608 13.5L97.2208 13.4L97.0608 13.2L97.0408 13.08L96.8808 12.92L96.8608 12.88L96.7408 12.84L96.6808 12.86L96.5808 12.82L96.7808 12.52L96.8208 12.54L96.9208 12.5L96.9808 12.46L97.1208 12.28L97.8008 11.46L98.0608 11.22L98.2208 11L98.2808 10.88L98.4408 10.7L98.5808 10.52L98.6008 10.46L98.7408 10.32L98.8008 10.22L98.9008 10.14L99.1008 9.94L99.5808 9.38L99.6208 9.26L100.061 8.82V8.76L100.201 8.6L100.281 8.52V8.5L100.661 8.06L101.061 7.6ZM95.2808 15.44L94.7408 15.8L94.6608 15.72L94.7008 15.56L94.9808 15.16L95.2008 14.68L95.7808 13.98L96.0208 13.64L96.2208 13.4H96.2408L96.5008 13.38L96.5208 13.44H96.5408L96.5608 13.4H96.6408L96.7208 13.46L96.8208 13.5L97.1008 13.78L97.2408 13.96L97.2208 13.98L96.4208 14.52L96.3608 14.6L96.0208 14.82L95.9208 14.92L95.7408 15.06L95.6808 15.14L95.5008 15.3L95.2808 15.44ZM110.256 15.5L110.096 15.7L110.036 15.8L109.896 15.98L109.876 16.06L109.816 16.2C109.776 16.32 109.776 16.38 109.796 16.46L109.816 16.54L109.796 16.64L109.856 16.72L109.936 16.76L110.036 16.8H110.176L110.216 16.82H110.436L110.576 16.78L110.596 16.76L110.636 16.78L110.676 16.74L110.736 16.72L110.756 16.76L110.776 16.74L110.876 16.66L111.176 16.56L111.516 16.44L111.536 16.4L111.696 16.34L111.716 16.36V16.32L112.236 16.14L112.276 16.1L112.336 16.08L112.496 15.98L112.636 15.92H112.656L112.816 15.86L112.916 15.8L113.116 15.72L113.196 15.68L113.636 15.52L114.016 15.4L114.356 15.26L114.816 15.04L114.976 14.98L115.296 14.9H115.376L115.616 14.78L115.956 14.7H116.116L116.196 14.64L116.176 14.5H116.136C116.116 14.48 116.096 14.48 116.076 14.48L115.576 14.64H115.476L114.516 14.92L114.456 14.98L114.276 15.04L114.216 15V15.04L113.556 15.22L113.476 15.28L113.396 15.3L113.236 15.38L112.976 15.46V15.44L112.756 15.5L112.696 15.54L111.996 15.74H111.876L111.736 15.8L111.576 15.84C111.396 15.88 111.276 15.92 111.136 15.94L111.096 15.92L110.996 15.94H110.856L110.816 15.96H110.676L110.576 15.98C110.556 15.98 110.536 15.96 110.516 15.96C110.436 15.94 110.456 15.98 110.456 15.92C110.436 15.88 110.456 15.8 110.496 15.72L110.516 15.7L110.576 15.54C110.596 15.5 110.616 15.44 110.656 15.4L110.816 15.18L110.856 15.1L110.896 15.04L111.016 14.88L111.056 14.86V14.84L111.096 14.8L111.336 14.52L111.396 14.5L111.516 14.4L111.656 14.18C111.696 14.14 111.736 14.1 111.756 14.06L111.876 13.96L111.916 13.88L111.956 13.82L111.996 13.78L112.016 13.8L112.036 13.76H111.996L112.016 13.7V13.62L111.976 13.6V13.58C111.936 13.5 111.896 13.46 111.816 13.44L111.736 13.38L111.596 13.3L111.416 13.26H111.176L110.556 13.4L110.296 13.56L110.056 13.72L109.956 13.8L109.796 13.9L109.696 13.98L109.336 14.16L109.156 14.3L108.796 14.48L108.676 14.52L108.116 14.78L107.976 14.88L107.436 15.16L107.296 15.24L107.136 15.32L106.836 15.46L106.756 15.48L106.696 15.54L106.656 15.56V15.58L106.516 15.64L106.416 15.72C106.196 15.84 105.956 15.94 105.736 16.04H105.576L105.476 16.12L105.336 16.2L105.236 16.26C104.976 16.38 104.716 16.5 104.456 16.6L104.356 16.62H104.336L104.056 16.72L103.876 16.76L103.456 16.92L103.396 16.88L103.336 16.78L103.296 16.72V16.6L103.316 16.56V16.52L103.396 16.4L103.496 16.28L103.556 16.2L103.636 16.14L103.676 16.1V16.06L103.696 16.02L103.676 15.9V15.86L103.876 15.62L103.976 15.5L104.076 15.4L104.116 15.32L104.196 15.22L104.236 15.12H104.276L104.336 15.04L104.376 14.96L104.436 14.92L104.476 14.88L104.536 14.84L104.776 14.54L104.816 14.48L104.856 14.44L105.036 14.24L105.096 14.18L105.276 14.08L105.416 14L105.556 13.86L105.736 13.66L105.816 13.58L106.716 12.92L106.756 12.9L106.776 12.88L106.956 12.74C106.956 12.76 106.956 12.76 106.976 12.74C107.096 12.66 107.196 12.58 107.316 12.52L107.636 12.38L108.096 12.18L108.416 12.04L108.696 11.92H108.836L108.976 11.9H109.016V11.92H109.096V11.9L109.416 11.94H109.776L109.916 11.92L110.136 11.86C110.156 11.88 110.216 11.9 110.276 11.86C110.416 11.72 110.476 11.68 110.496 11.62L110.556 11.58V11.4L110.516 11.3L110.436 11.28L110.416 11.24L110.356 11.2H110.276V11.18H110.236L110.156 11.16H110.036L109.916 11.18L109.716 11.12L109.636 11.14L109.496 11.18L109.376 11.22L109.236 11.24L109.136 11.3H109.076L108.896 11.36L108.856 11.38L108.816 11.36L108.656 11.4L108.576 11.44L108.456 11.54L107.816 11.86L107.656 11.92V11.96L107.576 12.02L107.476 12.04L107.396 12.06L107.256 12.1L107.196 12.14L107.056 12.12L107.016 12.14L106.936 12.28L106.836 12.38L106.596 12.64L106.576 12.66L106.056 13.04L105.896 13.14L105.556 13.42L105.496 13.48L105.236 13.7H105.216V13.72L104.316 14.52L104.076 14.72L103.916 14.84L103.836 14.94L103.676 15.2L103.636 15.24L103.416 15.4L103.276 15.6L103.236 15.7V15.68L103.196 15.7L103.156 15.78L103.076 15.9L103.056 15.98L102.996 16L102.916 16.24C102.776 16.56 102.696 16.86 102.776 17.12C102.856 17.34 103.116 17.4 103.436 17.36H103.456L103.576 17.38H103.636L103.696 17.36L103.736 17.34L104.036 17.22L104.116 17.2L104.516 17.06L104.596 17C104.656 16.98 104.736 16.96 104.796 16.92H104.956L105.196 16.82H105.376V16.8H105.416L105.616 16.68L105.656 16.64L106.136 16.38L106.316 16.3L106.496 16.24L106.616 16.14L106.736 16.06L107.096 15.84L107.216 15.8L107.456 15.66L107.556 15.62L107.856 15.46L108.036 15.38L108.496 15.12L108.956 14.9L109.096 14.82L109.236 14.76L109.396 14.66H109.416L109.996 14.3L110.096 14.28L110.236 14.24L110.816 14.02L111.056 13.96H111.236L111.336 13.98L111.356 14L111.296 14.2L111.276 14.18V14.22L111.196 14.32L110.956 14.58L110.896 14.62L110.876 14.66L110.816 14.72L110.736 14.88L110.376 15.32L110.336 15.38L110.316 15.42L110.256 15.5ZM115.213 15.36L115.313 15.26L115.433 15.06L115.573 14.76L115.813 14.38L115.933 14.18L115.973 14.1L116.093 13.96L116.273 13.66L116.353 13.52L116.393 13.4L116.513 13.22C116.513 13.22 116.533 13.24 116.533 13.22C116.653 13.1 116.753 12.94 116.853 12.8H116.873L116.933 12.66L117.013 12.56L117.193 12.36L117.313 12.34L117.533 12.06L117.513 12.02C117.733 11.76 117.933 11.48 117.933 11.24L117.953 11.18L117.933 11.16C117.913 11.06 117.833 10.96 117.673 10.9L117.773 10.86L117.793 10.84L117.753 10.8H117.693L117.613 10.78L117.533 10.84V10.88L117.453 10.92L117.353 10.9L117.213 10.88H117.113L117.033 10.96H116.993L116.953 10.98V11.08L116.853 11.1L116.893 11.12L116.873 11.18V11.26L116.813 11.36L116.713 11.3L116.633 11.42L116.653 11.5H116.693L116.653 11.52H116.693L116.613 11.54L116.573 11.58V11.64L116.673 11.68L116.693 11.66L116.733 11.72L116.713 11.76L116.653 11.86L116.633 11.92V11.96L116.593 12C116.593 12.1 116.673 12.2 116.773 12.1L116.853 12L116.873 12.02L116.813 12.1L116.833 12.06L116.773 12.12L116.853 12.16V12.22L116.833 12.32L116.773 12.46L116.653 12.6L116.593 12.56L116.473 12.58L116.353 12.78V12.84L116.213 13.04L116.173 13.08L116.153 13.14L116.053 13.32L115.973 13.44L115.773 13.78L115.433 14.2V14.28L115.173 14.68L115.113 14.72L114.893 15L114.853 15.12L114.713 15.24L114.593 15.54L114.493 15.74L114.433 15.76L114.293 15.96L114.053 16.3L113.993 16.34H113.953L113.773 16.48V16.52L113.713 16.62L113.633 16.68V16.72L113.613 16.76L113.473 16.96L113.393 17.2L113.333 17.34L113.353 17.42L113.393 17.38L113.333 17.62L113.293 17.66V17.74C113.273 17.82 113.293 17.88 113.333 17.94V17.96L113.433 18.1L113.613 18.14L113.813 18L114.133 17.76L114.253 17.64L114.293 17.54L114.313 17.5L114.353 17.38L114.453 17.2L114.533 17.1L114.633 16.94L114.973 16.6L115.173 16.42L115.253 16.32L115.333 16.26L115.413 16.12L115.613 15.92L115.693 15.86L115.793 15.76L115.973 15.56L116.133 15.42L116.153 15.38L116.293 15.24L116.453 15.14L116.533 15.1L116.773 14.88L117.033 14.6L117.173 14.5L117.293 14.32L118.153 13.6L118.733 13.22L118.853 13.08L119.153 12.88L119.333 12.74L119.433 12.68L119.813 12.48L119.933 12.36L120.233 12.18L121.033 11.76L121.133 11.66L121.253 11.6C121.373 11.54 121.693 11.38 122.073 11.22L122.873 11.06L122.993 11.04L123.213 10.94L123.373 10.96L123.473 10.94L123.753 10.82L124.053 10.78L124.133 10.88L124.173 11.14L124.193 11.28L124.173 11.38L124.133 11.4V11.5L124.233 11.42V11.62L124.353 11.76H124.573L124.813 11.68L125.053 11.2L125.093 10.68L124.953 10.52C124.953 10.48 124.933 10.46 124.913 10.44C124.853 10.38 124.773 10.32 124.673 10.28L124.593 10.2L124.473 10.24C124.213 10.22 123.893 10.28 123.553 10.38L123.293 10.4L123.153 10.46L122.933 10.54L122.753 10.64L122.693 10.68L122.333 10.8L121.973 10.94L121.853 11.04C121.573 11.16 121.333 11.28 121.193 11.36L121.013 11.44L120.593 11.58L120.373 11.7L120.153 11.9L119.853 12.02L119.733 12.1L119.573 12.26L119.173 12.5H119.153L119.113 12.54L118.933 12.66L118.853 12.68L118.753 12.78L118.393 13.02V13L117.833 13.4L117.813 13.42L117.433 13.72H117.413L117.373 13.76L117.033 14.02L116.673 14.24L116.353 14.56H116.293L115.933 14.9H115.813L115.893 14.98L115.733 15.04V15.06H115.693L115.653 15.08L115.573 15.14L115.293 15.34L115.133 15.48L115.173 15.4L115.213 15.36ZM127.884 16.2L127.924 16.16L127.984 16.12L128.224 16.04L128.284 16L128.364 15.9C128.704 15.7 129.064 15.46 129.444 15.2L129.564 15.14L129.744 15.08L129.924 14.92L130.104 14.78L130.724 14.4H130.784L131.044 14.26V14.22H131.064L131.104 14.24L131.144 14.18L131.264 14.12L131.324 14.08L131.384 14L131.324 13.88L131.264 13.86H131.204L131.164 13.94C130.944 14.06 130.764 14.18 130.604 14.28L130.504 14.34L130.304 14.44L130.164 14.52L130.084 14.6L129.944 14.66L129.844 14.76C129.824 14.76 129.824 14.78 129.784 14.78L129.684 14.84L129.584 14.88L129.444 14.98H129.384L128.964 15.22L128.884 15.28L128.784 15.32L128.544 15.46L128.484 15.52L128.264 15.68L128.084 15.78L127.884 15.9L127.724 15.98L127.604 16.02L127.544 16.1H127.484L127.324 16.18L127.284 16.24L127.264 16.26L126.904 16.44H126.784L126.744 16.52L126.044 16.86L125.864 16.9L125.544 17.02L125.144 17.12L124.964 17.22L124.724 17.36L124.624 17.42C124.504 17.46 124.384 17.48 124.284 17.52H124.224L123.804 17.62H123.704L123.624 17.58L123.504 17.6L123.384 17.64L123.244 17.62H123.184L123.064 17.64L122.984 17.6C122.984 17.58 122.964 17.56 122.924 17.38L122.964 17.14V17.02L123.084 16.6L123.244 16.26L123.284 16.1L123.424 15.74C123.444 15.7 123.464 15.68 123.624 15.5L123.844 15.12L123.964 14.94L124.104 14.74L124.404 14.4L124.644 14.12L124.684 14.06L124.764 13.92L124.904 13.82L124.944 13.74L125.104 13.58L125.244 13.38L125.424 13.22L125.444 13.1C125.464 13.08 125.504 13.06 125.524 13.02L125.804 12.74L125.824 12.7L125.864 12.6L126.204 12.28L126.324 12.24H126.364L126.444 12.18L126.504 12.12L126.704 11.9L126.844 11.68L126.884 11.46V11.36L126.744 11.26L126.584 11.24L126.464 11.26L126.444 11.3L126.384 11.34C126.364 11.32 126.344 11.3 126.324 11.3C126.184 11.28 126.084 11.36 126.004 11.46L125.864 11.54L125.724 11.68V11.72H125.684L125.624 11.76L125.484 11.86L125.384 12.02V12.12L125.344 12.32L125.264 12.38L125.184 12.54L125.044 12.66L124.824 12.94L124.724 13.24L124.344 13.88L124.164 14.04L124.084 14.16L123.964 14.22L123.784 14.4L123.724 14.6L123.664 14.66L123.604 14.78L123.544 14.92L123.384 15.16C123.324 15.24 123.284 15.3 123.244 15.36L123.124 15.46L123.084 15.54L122.944 15.7L122.804 15.94L122.764 16.08L122.604 16.48L122.464 16.88V16.96C122.384 17.16 122.384 17.34 122.404 17.5L122.384 17.62L122.464 17.7C122.564 17.86 122.724 17.96 122.924 18.02L123.304 18.1L123.524 18.04L123.864 18.06L124.104 18.02L124.384 17.88L124.704 17.82L124.824 17.78L125.004 17.7L125.224 17.58L125.344 17.52L125.504 17.46L125.804 17.26L125.924 17.2L126.224 17.04L126.364 17L126.424 16.96L126.444 16.92L126.624 16.84L126.884 16.74L126.944 16.7L126.964 16.66L127.064 16.6L127.244 16.56L127.524 16.44L127.724 16.28L127.884 16.2ZM129.544 6.92L129.504 6.82L129.564 6.6L129.364 6.52L129.204 6.36L129.004 6.42L128.864 6.56V6.52L128.764 6.56H128.804L128.724 6.64H128.704L128.584 6.8L128.424 6.9L128.344 7L128.124 7.22L128.084 7.24L127.944 7.4L127.744 7.64L127.684 7.76L127.544 8.06L127.584 8.22L127.344 8.56C127.344 8.62 127.304 8.66 127.304 8.68L127.224 8.74L127.244 8.9L127.464 8.76V8.72L127.604 8.56L127.684 8.46L127.884 8.4L128.044 8.1L128.244 8.04L128.344 7.88L128.424 7.84L128.444 7.82L128.604 7.7L128.764 7.64L128.944 7.6L129.144 7.56V7.54L129.204 7.46L129.284 7.36L129.444 7.08L129.544 6.92ZM130.253 14.16L130.353 14.06L130.553 13.92L130.813 13.72C130.833 13.72 130.833 13.7 130.853 13.68L131.053 13.58L131.193 13.5L131.313 13.36L131.533 13.22L131.593 13.2L131.873 13.06L131.913 13.1L131.973 13.02L132.373 12.8L132.613 12.7H132.733L132.833 12.6H132.933L133.393 12.34L133.533 12.32L133.753 12.2L133.993 12.14L134.573 11.84L134.893 11.76L134.913 11.84L135.053 11.96L135.173 11.86L135.233 11.68L135.373 11.64L135.633 11.8L135.913 11.88H135.973L136.213 11.72L136.373 11.54V11.44L136.353 11.32L136.233 11.2L136.253 11.06L136.153 10.94C136.153 10.92 136.133 10.9 136.093 10.9L136.033 10.82H135.713L135.473 10.94L135.453 10.9H135.213L135.073 10.92H135.033L134.973 10.94H134.913L134.893 10.9L134.873 10.94V10.96L134.773 11L134.753 11.02L134.733 11.06L134.673 11.08L134.653 11.14L134.633 11.18L134.573 11.2L134.493 11.28H134.253L134.153 11.34L133.993 11.5L133.813 11.6L133.673 11.68L133.113 11.94L133.073 11.96L132.573 12.22L132.413 12.32L131.973 12.54L131.833 12.66L130.873 13.24H130.853L130.773 13.3L130.633 13.34L130.513 13.46C130.433 13.52 130.353 13.58 130.273 13.62L130.213 13.64L130.073 13.78L130.033 13.8L130.013 13.84C129.833 13.96 129.673 14.06 129.533 14.18L129.373 14.22L129.273 14.3L129.213 14.4L129.173 14.44L129.053 14.48L128.893 14.64L128.833 14.68L128.713 14.86L128.553 15.02L128.513 15.08L128.333 15.28L128.293 15.3L128.213 15.36V15.38L128.133 15.5V15.48L128.093 15.5L128.053 15.58L127.893 15.76L127.853 15.9V15.92L127.833 15.94V16L127.813 16.06H127.773V16.08H127.793V16.2L127.733 16.22L127.753 16.26V16.32L127.793 16.36C127.773 16.48 127.773 16.58 127.773 16.7L127.733 16.8L127.753 16.92L127.793 17.02V17.12L127.893 17.22L128.193 17.32H128.233L128.593 17.46L128.953 17.52L129.013 17.48H129.153L129.613 17.44L129.973 17.34L130.553 17.1L131.073 16.9L131.733 16.68L132.653 16.4L133.333 16.08H133.413L133.593 16L134.233 15.78L134.453 15.7L134.573 15.68L134.673 15.66L134.733 15.64L134.953 15.56L135.053 15.5L135.133 15.46H135.153L135.493 15.34L136.033 15.1H136.073L136.093 15.08L136.593 14.88L136.773 14.82H136.853L137.073 14.72L137.373 14.62H137.533L137.573 14.58V14.52C137.973 14.36 138.373 14.18 139.173 13.7L139.393 13.62L139.633 13.42L139.693 13.36L139.633 13.26H139.513L139.453 13.28L139.393 13.34C139.053 13.52 138.733 13.7 138.433 13.84L137.613 14.16L137.593 14.2L137.473 14.26C137.433 14.28 137.393 14.3 137.353 14.3L137.313 14.28V14.32L136.733 14.54C136.473 14.64 136.213 14.72 135.973 14.8L135.733 14.84L135.213 15.02L135.073 15.06L134.953 15.1H134.893L134.273 15.34C133.853 15.48 133.433 15.6 132.973 15.76L132.593 15.88L132.493 15.96L132.333 16.02L131.853 16.12L131.733 16.22L131.553 16.3L131.413 16.36L131.093 16.46H131.013L130.493 16.6L130.453 16.62L130.273 16.68H130.113L129.793 16.76H129.533L129.373 16.78L129.113 16.88C128.853 16.9 128.633 16.92 128.453 16.86L128.433 16.84L128.313 16.8L128.213 16.74L128.153 16.66C128.073 16.54 128.093 16.4 128.173 16.24L128.233 16.14L128.293 16.06L128.373 15.9L128.413 15.86V15.82L128.753 15.44H128.833L128.853 15.38L128.953 15.32L128.973 15.24L129.073 15.22L129.133 15.12L129.233 14.98L129.373 14.86L129.413 14.82C129.633 14.64 129.853 14.44 130.093 14.26L130.253 14.16Z" fill="#252B2B"/>
</svg>
