<svg id="Layer_2" data-name="Layer 2" xmlns="http://www.w3.org/2000/svg" viewBox="0 0 595.28 235.11"><defs><style>.cls-1{fill:#27438a;}.cls-2{fill:#5873b8;}.cls-3{fill:#231f20;}</style></defs><title>2logo</title><path class="cls-1" d="M196.88,89.93c-21-7.57-61.08-11.77-84,35-15.13-7.57-4.2-29.7-4.2-29.7C67.69,111.85,55.7,169.4,92.34,202.14a1.89,1.89,0,0,1,.16,2.67h0a1.89,1.89,0,0,1-2.67.14c-6.27-5.64-31.07-29.82-31.07-59.23,0-33.66,26.33-83.53,79-83.53C176.15,62.19,196.88,89.93,196.88,89.93Z"/><path class="cls-1" d="M96.39,209a.85.85,0,0,1,.8-1.47c26.27,8.1,63.27-1.95,63.27-29.67,0-12.89-10.09-11.07-9.39-38,9.11,22.83,31,14.43,33.9,40.06,13.73-17.79,25.08-7,37.68-13.17C199,214.23,124.6,233.74,96.39,209Z"/><path class="cls-1" d="M219.84,76.41c11.54-22.47-15.54-61.08-70.21-61.08-39.61,0-56.16,12.29-56.16,12.29V26.36c-14-9.28-57.68-17.8-77,11.29,26.07,0,36.36,2.25,36.36,15.79C52.85,71.5,22,94.57,38.3,143.21c0,0,15.05-73.72,44.13-85.75s77.74-15.05,90.27-6.77S219.84,76.41,219.84,76.41Z"/><path class="cls-2" d="M80.68,207.91c-21.06-23.83-32.1-34.86-32.1-68,0-26.32,22.82-87.25,89.52-87.25s72.47,48.14,81,48.14c3.56,0,7-3.51,7-9.52,0-14-32.59-55.67-95.53-55.67-42.38,0-94.67,39.13-94.67,98.06C35.91,178.12,80.68,207.91,80.68,207.91Z"/><path class="cls-3" d="M195.8,106.27h14.7a17.59,17.59,0,0,1,7,1.18,11.33,11.33,0,0,1,4.42,3.38,14,14,0,0,1,2.54,5.14,24,24,0,0,1,.78,6.2,21.49,21.49,0,0,1-1.17,8,13.15,13.15,0,0,1-3.24,4.74,10.49,10.49,0,0,1-4.46,2.55,23,23,0,0,1-5.9.87H195.8Zm9.9,7.25V131h2.42a10.22,10.22,0,0,0,4.42-.69,4.71,4.71,0,0,0,2.05-2.4,15.25,15.25,0,0,0,.74-5.56q0-5.1-1.66-7c-1.1-1.25-2.94-1.88-5.5-1.88Z"/><path class="cls-3" d="M230.12,122.3q0-7.85,4.37-12.21t12.17-4.37q8,0,12.32,4.29c2.88,2.87,4.32,6.87,4.32,12a19.74,19.74,0,0,1-1.89,9.21,13.49,13.49,0,0,1-5.46,5.59,18.05,18.05,0,0,1-8.9,2,20.52,20.52,0,0,1-9-1.73,13.51,13.51,0,0,1-5.75-5.46A18.12,18.12,0,0,1,230.12,122.3Zm9.9,0q0,4.84,1.8,7a6.82,6.82,0,0,0,9.84.05q1.76-2.09,1.75-7.45,0-4.53-1.83-6.61a6.22,6.22,0,0,0-4.94-2.09,6,6,0,0,0-4.81,2.12C240.62,116.75,240,119.08,240,122.35Z"/><path class="cls-3" d="M269.53,106.27h9.9v24.14h15.44v7.88H269.53Z"/><path class="cls-3" d="M300.22,106.27h16.45c3.58,0,6.27.85,8.05,2.55s2.68,4.13,2.68,7.28a9.9,9.9,0,0,1-2.92,7.58q-2.91,2.73-8.9,2.73h-5.42v11.88h-9.94Zm9.94,13.65h2.43a6.24,6.24,0,0,0,4-1,3.19,3.19,0,0,0,1.16-2.55,3.53,3.53,0,0,0-1-2.55q-1-1-3.78-1h-2.82Z"/><path class="cls-3" d="M333.51,106.27h9.9v11.2h10.81v-11.2h9.94v32h-9.94V125.34H343.41v12.95h-9.9Z"/><path class="cls-3" d="M372,106.27h9.91v32H372Z"/><path class="cls-3" d="M390,106.27h9.24L411.3,124V106.27h9.33v32H411.3l-12-17.58v17.58H390Z"/><path class="cls-2" d="M443.87,106.27h16.45q5.39,0,8.05,2.55c1.79,1.71,2.68,4.13,2.68,7.28a9.86,9.86,0,0,1-2.92,7.58q-2.91,2.73-8.9,2.73h-5.42v11.88h-9.94Zm9.94,13.65h2.43a6.25,6.25,0,0,0,4-1,3.22,3.22,0,0,0,1.16-2.55,3.54,3.54,0,0,0-1-2.55q-1-1-3.78-1h-2.82Z"/><path class="cls-2" d="M475.88,122.3q0-7.85,4.36-12.21t12.17-4.37q8,0,12.32,4.29c2.89,2.87,4.33,6.87,4.33,12a19.74,19.74,0,0,1-1.89,9.21,13.49,13.49,0,0,1-5.46,5.59,18.05,18.05,0,0,1-8.9,2,20.46,20.46,0,0,1-9-1.73,13.48,13.48,0,0,1-5.76-5.46A18.12,18.12,0,0,1,475.88,122.3Zm9.89,0q0,4.84,1.81,7a6.82,6.82,0,0,0,9.84.05q1.74-2.09,1.74-7.45c0-3-.6-5.22-1.82-6.61a6.25,6.25,0,0,0-4.95-2.09,6,6,0,0,0-4.81,2.12C486.38,116.75,485.77,119.08,485.77,122.35Z"/><path class="cls-2" d="M514,122.3q0-7.85,4.37-12.21t12.17-4.37q8,0,12.32,4.29c2.88,2.87,4.32,6.87,4.32,12a19.74,19.74,0,0,1-1.89,9.21,13.49,13.49,0,0,1-5.46,5.59,18.05,18.05,0,0,1-8.9,2,20.52,20.52,0,0,1-9-1.73,13.51,13.51,0,0,1-5.75-5.46A18,18,0,0,1,514,122.3Zm9.9,0q0,4.84,1.8,7a6.82,6.82,0,0,0,9.84.05c1.16-1.39,1.75-3.87,1.75-7.45q0-4.53-1.83-6.61a6.23,6.23,0,0,0-5-2.09,6,6,0,0,0-4.8,2.12C524.54,116.75,523.94,119.08,523.94,122.35Z"/><path class="cls-2" d="M553.45,106.27h9.89v24.14h15.45v7.88H553.45Z"/><path class="cls-3" d="M202.13,157.89l5.23-.32a4.16,4.16,0,0,0,.69,1.94,2.92,2.92,0,0,0,2.43,1.08,2.7,2.7,0,0,0,1.81-.55,1.66,1.66,0,0,0,.64-1.29,1.62,1.62,0,0,0-.6-1.23,7,7,0,0,0-2.82-1,12.2,12.2,0,0,1-5.16-2.16,4.37,4.37,0,0,1-1.55-3.44,4.66,4.66,0,0,1,.79-2.59,5.32,5.32,0,0,1,2.4-1.92,11.24,11.24,0,0,1,4.37-.69,9,9,0,0,1,5.2,1.26,5.51,5.51,0,0,1,2.13,4l-5.18.3a2.43,2.43,0,0,0-2.7-2.29,2.13,2.13,0,0,0-1.44.41,1.25,1.25,0,0,0-.49,1,1,1,0,0,0,.4.77,4.61,4.61,0,0,0,1.85.65,23.11,23.11,0,0,1,5.16,1.58,5.37,5.37,0,0,1,2.27,2,5,5,0,0,1,.71,2.63,5.61,5.61,0,0,1-1,3.16,6,6,0,0,1-2.64,2.19,10.81,10.81,0,0,1-4.28.74c-3,0-5.12-.58-6.29-1.74A7,7,0,0,1,202.13,157.89Z"/><path class="cls-3" d="M254.33,146h14.73v3.8h-9.22v2.83h8.55v3.62h-8.55v3.51h9.49v4h-15Z"/><path class="cls-3" d="M305.66,163.78V146h9.16a13,13,0,0,1,3.9.44,4.12,4.12,0,0,1,2.17,1.62,5,5,0,0,1-1.54,7.17,6.64,6.64,0,0,1-1.93.71,5.94,5.94,0,0,1,1.43.65,6.09,6.09,0,0,1,.88.94,8,8,0,0,1,.77,1.1l2.66,5.16H317L314,158.34a4.16,4.16,0,0,0-1-1.37,2.31,2.31,0,0,0-1.34-.41h-.49v7.22Zm5.52-10.58h2.32A7.79,7.79,0,0,0,315,153a1.43,1.43,0,0,0,.89-.55,1.66,1.66,0,0,0,.34-1,1.65,1.65,0,0,0-.54-1.32,3.3,3.3,0,0,0-2-.46h-2.42Z"/><path class="cls-3" d="M356.05,146h5.74l4,12.8,3.95-12.8h5.58l-6.61,17.79h-6Z"/><path class="cls-3" d="M410.64,146h5.51v17.79h-5.51Z"/><path class="cls-3" d="M465.24,156.5l4.82,1.45a8.75,8.75,0,0,1-1.53,3.39,6.63,6.63,0,0,1-2.59,2,9.7,9.7,0,0,1-3.94.69,11.5,11.5,0,0,1-4.74-.84,7.51,7.51,0,0,1-3.17-3,10,10,0,0,1-1.33-5.43q0-4.41,2.34-6.78a10.69,10.69,0,0,1,11.93-1,7.93,7.93,0,0,1,2.86,4.17L465,152.3a4.06,4.06,0,0,0-.54-1.19,3.14,3.14,0,0,0-2.62-1.31,3.23,3.23,0,0,0-2.86,1.5,6.4,6.4,0,0,0-.76,3.5c0,2,.3,3.33.9,4.06a3.54,3.54,0,0,0,4.91.21A5.44,5.44,0,0,0,465.24,156.5Z"/><path class="cls-3" d="M506,146h14.73v3.8h-9.22v2.83h8.55v3.62h-8.55v3.51H521v4H506Z"/><path class="cls-3" d="M556.32,157.89l5.23-.32a4,4,0,0,0,.69,1.94,2.92,2.92,0,0,0,2.43,1.08,2.72,2.72,0,0,0,1.81-.55,1.66,1.66,0,0,0,.64-1.29,1.6,1.6,0,0,0-.61-1.23,6.84,6.84,0,0,0-2.81-1,12.2,12.2,0,0,1-5.16-2.16,4.37,4.37,0,0,1-1.55-3.44,4.66,4.66,0,0,1,.79-2.59,5.35,5.35,0,0,1,2.39-1.92,11.3,11.3,0,0,1,4.38-.69,9,9,0,0,1,5.2,1.26,5.51,5.51,0,0,1,2.13,4l-5.18.3A2.43,2.43,0,0,0,564,149a2.13,2.13,0,0,0-1.44.41,1.23,1.23,0,0,0-.49,1,1,1,0,0,0,.4.77,4.61,4.61,0,0,0,1.85.65,23.11,23.11,0,0,1,5.16,1.58,5.37,5.37,0,0,1,2.27,2,5,5,0,0,1,.71,2.63,5.69,5.69,0,0,1-1,3.16,6,6,0,0,1-2.64,2.19,10.86,10.86,0,0,1-4.29.74c-3,0-5.12-.58-6.28-1.74A6.88,6.88,0,0,1,556.32,157.89Z"/></svg>