<svg xmlns="http://www.w3.org/2000/svg" width="20" height="20" fill="none" viewBox="0 0 20 20"><path fill="#4EB309" fill-rule="evenodd" d="M8.405 1.328a.833.833 0 0 1 .762-.495A3.333 3.333 0 0 1 12.5 4.166v2.5h3.879a2.5 2.5 0 0 1 2.495 2.875l-1.15 7.5a2.501 2.501 0 0 1-2.495 2.125H3.333a2.5 2.5 0 0 1-2.5-2.5v-5.833a2.5 2.5 0 0 1 2.5-2.5h1.959l3.113-7.005zM5 10H3.333a.833.833 0 0 0-.833.833v5.833a.833.833 0 0 0 .833.834H5V10zm1.667 7.5h8.576a.833.833 0 0 0 .833-.709l1.15-7.5a.833.833 0 0 0-.833-.958h-4.726a.833.833 0 0 1-.834-.833V4.166a1.667 1.667 0 0 0-1.16-1.587L6.667 9.343V17.5z" clip-rule="evenodd"/></svg>