<svg xmlns="http://www.w3.org/2000/svg" width="16" height="15" fill="none" viewBox="0 0 16 15"><path fill="#fff" fill-rule="evenodd" d="M16 14.546h-3.536V9.431c0-1.338-.553-2.252-1.77-2.252-.93 0-1.448.617-1.688 1.21-.09.214-.077.511-.077.808v5.348H5.426s.045-9.058 0-9.882H8.93v1.551c.207-.678 1.327-1.646 3.113-1.646C14.26 4.57 16 5.991 16 9.051v5.495zM1.883 3.428h-.022C.73 3.428 0 2.673 0 1.716 0 .74.754 0 1.905 0c1.15 0 1.858.738 1.88 1.713 0 .957-.73 1.715-1.902 1.715zM.403 4.664h3.12v9.881H.402v-9.88z" clip-rule="evenodd"/></svg>