<svg xmlns="http://www.w3.org/2000/svg" width="23" height="16" fill="none" viewBox="0 0 23 16"><path fill="#fff" d="M17.453 9.089c-1.036 0-2.008-.44-2.89-1.154l.214-1.012.007-.04c.195-1.074.798-2.876 2.67-2.876a2.543 2.543 0 0 1 2.541 2.541c0 1.4-1.14 2.54-2.542 2.54zm0-7.654c-2.388 0-4.241 1.55-4.993 4.105C11.313 3.816 10.44 1.745 9.933 0H7.361v6.687a2.399 2.399 0 0 1-2.395 2.396 2.399 2.399 0 0 1-2.393-2.396V0H0v6.687c0 2.74 2.228 4.987 4.966 4.987 2.739 0 4.967-2.247 4.967-4.987V5.568c.498 1.041 1.112 2.096 1.856 3.03L10.216 16h2.63l1.14-5.37c1 .64 2.15 1.044 3.467 1.044 2.82 0 5.114-2.306 5.114-5.125a5.119 5.119 0 0 0-5.114-5.114z"/></svg>